<?xml version="1.0" standalone="no"?>
 <!DOCTYPE svg PUBLIC "-//W3C//DTD SVG 1.1//EN" 
 "http://www.w3.org/Graphics/SVG/1.1/DTD/svg11.dtd"> 
<svg
  xmlns:svg="http://www.w3.org/2000/svg"
  xmlns="http://www.w3.org/2000/svg"
  xmlns:xlink="http://www.w3.org/1999/xlink"
  version="1.1"
  width="3.683000cm" height="4.709160cm" viewBox="0 0 36830000 47091600">
<title>SVG Picture created as laser_breakout-F_Paste.svg date 2022/10/27 11:27:05 </title>
  <desc>Picture generated by PCBNEW </desc>
<g style="fill:#000000; fill-opacity:1.000000;stroke:#000000; stroke-opacity:1.000000;
stroke-linecap:round; stroke-linejoin:round;"
 transform="translate(0 0) scale(1 1)">
</g>
<g style="fill:#000000; fill-opacity:0.0; 
stroke:#000000; stroke-width:0.000000; stroke-opacity:1; 
stroke-linecap:round; stroke-linejoin:round;">
<g >
</g>
<g >
</g>
<g style="fill:#000000; fill-opacity:0.0; 
stroke:#000000; stroke-width:0.000000; stroke-opacity:1; 
stroke-linecap:round; stroke-linejoin:round;">
</g>
<g style="fill:#000000; fill-opacity:0.0; 
stroke:#000000; stroke-width:1.000000; stroke-opacity:1; 
stroke-linecap:round; stroke-linejoin:round;">
</g>
<g style="fill:#000000; fill-opacity:1.0; 
stroke:#000000; stroke-width:1.000000; stroke-opacity:1; 
stroke-linecap:round; stroke-linejoin:round;">
<path style="fill:#000000; fill-opacity:1.0; 
stroke:#000000; stroke-width:1.000000; stroke-opacity:1; 
stroke-linecap:round; stroke-linejoin:round;fill-rule:evenodd;"
d="M 16648799.000000,17191999.000000
14948801.000000,17191999.000000
14948801.000000,15192001.000000
16648799.000000,15192001.000000
Z" /> 
<path style="fill:#000000; fill-opacity:1.0; 
stroke:#000000; stroke-width:1.000000; stroke-opacity:1; 
stroke-linecap:round; stroke-linejoin:round;fill-rule:evenodd;"
d="M 16648799.000000,13191999.000000
14948801.000000,13191999.000000
14948801.000000,11192001.000000
16648799.000000,11192001.000000
Z" /> 
</g>
<g >
</g>
<g style="fill:#000000; fill-opacity:1.0; 
stroke:#000000; stroke-width:1.000000; stroke-opacity:1; 
stroke-linecap:round; stroke-linejoin:round;">
<path style="fill:#000000; fill-opacity:1.0; 
stroke:#000000; stroke-width:1.000000; stroke-opacity:1; 
stroke-linecap:round; stroke-linejoin:round;fill-rule:evenodd;"
d="M 17555201.000000,21677999.000000
17555201.000000,19978001.000000
19555199.000000,19978001.000000
19555199.000000,21677999.000000
Z" /> 
<path style="fill:#000000; fill-opacity:1.0; 
stroke:#000000; stroke-width:1.000000; stroke-opacity:1; 
stroke-linecap:round; stroke-linejoin:round;fill-rule:evenodd;"
d="M 21555201.000000,21677999.000000
21555201.000000,19978001.000000
23555199.000000,19978001.000000
23555199.000000,21677999.000000
Z" /> 
</g>
<g >
</g>
<g style="fill:#000000; fill-opacity:1.0; 
stroke:#000000; stroke-width:1.000000; stroke-opacity:1; 
stroke-linecap:round; stroke-linejoin:round;">
<path style="fill:#000000; fill-opacity:1.0; 
stroke:#000000; stroke-width:1.000000; stroke-opacity:1; 
stroke-linecap:round; stroke-linejoin:round;fill-rule:evenodd;"
d="M 17555201.000000,19391999.000000
17555201.000000,17692001.000000
19555199.000000,17692001.000000
19555199.000000,19391999.000000
Z" /> 
<path style="fill:#000000; fill-opacity:1.0; 
stroke:#000000; stroke-width:1.000000; stroke-opacity:1; 
stroke-linecap:round; stroke-linejoin:round;fill-rule:evenodd;"
d="M 21555201.000000,19391999.000000
21555201.000000,17692001.000000
23555199.000000,17692001.000000
23555199.000000,19391999.000000
Z" /> 
</g>
<g >
</g>
<g style="fill:#000000; fill-opacity:1.0; 
stroke:#000000; stroke-width:1.000000; stroke-opacity:1; 
stroke-linecap:round; stroke-linejoin:round;">
<path style="fill:#000000; fill-opacity:1.0; 
stroke:#000000; stroke-width:1.000000; stroke-opacity:1; 
stroke-linecap:round; stroke-linejoin:round;fill-rule:evenodd;"
d="M 19028800.000000,13299000.000000
19038315.000000,13251165.000000
19065412.000000,13210612.000000
19105965.000000,13183515.000000
19153800.000000,13174000.000000
19403800.000000,13174000.000000
19451635.000000,13183515.000000
19492188.000000,13210612.000000
19519285.000000,13251165.000000
19528800.000000,13299000.000000
19528800.000000,13549000.000000
19519285.000000,13596835.000000
19492188.000000,13637388.000000
19451635.000000,13664485.000000
19403800.000000,13674000.000000
19153800.000000,13674000.000000
19105965.000000,13664485.000000
19065412.000000,13637388.000000
19038315.000000,13596835.000000
19028800.000000,13549000.000000
Z" /> 
<path style="fill:#000000; fill-opacity:1.0; 
stroke:#000000; stroke-width:1.000000; stroke-opacity:1; 
stroke-linecap:round; stroke-linejoin:round;fill-rule:evenodd;"
d="M 18948800.000000,13486500.000000
18953558.000000,13462582.000000
18967106.000000,13442306.000000
18987382.000000,13428758.000000
19011300.000000,13424000.000000
19266300.000000,13424000.000000
19290218.000000,13428758.000000
19310494.000000,13442306.000000
19324042.000000,13462582.000000
19328800.000000,13486500.000000
19328800.000000,13611500.000000
19324042.000000,13635418.000000
19310494.000000,13655694.000000
19290218.000000,13669242.000000
19266300.000000,13674000.000000
19011300.000000,13674000.000000
18987382.000000,13669242.000000
18967106.000000,13655694.000000
18953558.000000,13635418.000000
18948800.000000,13611500.000000
Z" /> 
<path style="fill:#000000; fill-opacity:1.0; 
stroke:#000000; stroke-width:1.000000; stroke-opacity:1; 
stroke-linecap:round; stroke-linejoin:round;fill-rule:evenodd;"
d="M 19828800.000000,13299000.000000
19838315.000000,13251165.000000
19865412.000000,13210612.000000
19905965.000000,13183515.000000
19953800.000000,13174000.000000
20203800.000000,13174000.000000
20251635.000000,13183515.000000
20292188.000000,13210612.000000
20319285.000000,13251165.000000
20328800.000000,13299000.000000
20328800.000000,13549000.000000
20319285.000000,13596835.000000
20292188.000000,13637388.000000
20251635.000000,13664485.000000
20203800.000000,13674000.000000
19953800.000000,13674000.000000
19905965.000000,13664485.000000
19865412.000000,13637388.000000
19838315.000000,13596835.000000
19828800.000000,13549000.000000
Z" /> 
<path style="fill:#000000; fill-opacity:1.0; 
stroke:#000000; stroke-width:1.000000; stroke-opacity:1; 
stroke-linecap:round; stroke-linejoin:round;fill-rule:evenodd;"
d="M 20628800.000000,13299000.000000
20638315.000000,13251165.000000
20665412.000000,13210612.000000
20705965.000000,13183515.000000
20753800.000000,13174000.000000
21003800.000000,13174000.000000
21051635.000000,13183515.000000
21092188.000000,13210612.000000
21119285.000000,13251165.000000
21128800.000000,13299000.000000
21128800.000000,13549000.000000
21119285.000000,13596835.000000
21092188.000000,13637388.000000
21051635.000000,13664485.000000
21003800.000000,13674000.000000
20753800.000000,13674000.000000
20705965.000000,13664485.000000
20665412.000000,13637388.000000
20638315.000000,13596835.000000
20628800.000000,13549000.000000
Z" /> 
<path style="fill:#000000; fill-opacity:1.0; 
stroke:#000000; stroke-width:1.000000; stroke-opacity:1; 
stroke-linecap:round; stroke-linejoin:round;fill-rule:evenodd;"
d="M 21428800.000000,13299000.000000
21438315.000000,13251165.000000
21465412.000000,13210612.000000
21505965.000000,13183515.000000
21553800.000000,13174000.000000
21803800.000000,13174000.000000
21851635.000000,13183515.000000
21892188.000000,13210612.000000
21919285.000000,13251165.000000
21928800.000000,13299000.000000
21928800.000000,13549000.000000
21919285.000000,13596835.000000
21892188.000000,13637388.000000
21851635.000000,13664485.000000
21803800.000000,13674000.000000
21553800.000000,13674000.000000
21505965.000000,13664485.000000
21465412.000000,13637388.000000
21438315.000000,13596835.000000
21428800.000000,13549000.000000
Z" /> 
<path style="fill:#000000; fill-opacity:1.0; 
stroke:#000000; stroke-width:1.000000; stroke-opacity:1; 
stroke-linecap:round; stroke-linejoin:round;fill-rule:evenodd;"
d="M 22228800.000000,13299000.000000
22238315.000000,13251165.000000
22265412.000000,13210612.000000
22305965.000000,13183515.000000
22353800.000000,13174000.000000
22603800.000000,13174000.000000
22651635.000000,13183515.000000
22692188.000000,13210612.000000
22719285.000000,13251165.000000
22728800.000000,13299000.000000
22728800.000000,13549000.000000
22719285.000000,13596835.000000
22692188.000000,13637388.000000
22651635.000000,13664485.000000
22603800.000000,13674000.000000
22353800.000000,13674000.000000
22305965.000000,13664485.000000
22265412.000000,13637388.000000
22238315.000000,13596835.000000
22228800.000000,13549000.000000
Z" /> 
<path style="fill:#000000; fill-opacity:1.0; 
stroke:#000000; stroke-width:1.000000; stroke-opacity:1; 
stroke-linecap:round; stroke-linejoin:round;fill-rule:evenodd;"
d="M 22228800.000000,14099000.000000
22238315.000000,14051165.000000
22265412.000000,14010612.000000
22305965.000000,13983515.000000
22353800.000000,13974000.000000
22603800.000000,13974000.000000
22651635.000000,13983515.000000
22692188.000000,14010612.000000
22719285.000000,14051165.000000
22728800.000000,14099000.000000
22728800.000000,14349000.000000
22719285.000000,14396835.000000
22692188.000000,14437388.000000
22651635.000000,14464485.000000
22603800.000000,14474000.000000
22353800.000000,14474000.000000
22305965.000000,14464485.000000
22265412.000000,14437388.000000
22238315.000000,14396835.000000
22228800.000000,14349000.000000
Z" /> 
<path style="fill:#000000; fill-opacity:1.0; 
stroke:#000000; stroke-width:1.000000; stroke-opacity:1; 
stroke-linecap:round; stroke-linejoin:round;fill-rule:evenodd;"
d="M 22228800.000000,14899000.000000
22238315.000000,14851165.000000
22265412.000000,14810612.000000
22305965.000000,14783515.000000
22353800.000000,14774000.000000
22603800.000000,14774000.000000
22651635.000000,14783515.000000
22692188.000000,14810612.000000
22719285.000000,14851165.000000
22728800.000000,14899000.000000
22728800.000000,15149000.000000
22719285.000000,15196835.000000
22692188.000000,15237388.000000
22651635.000000,15264485.000000
22603800.000000,15274000.000000
22353800.000000,15274000.000000
22305965.000000,15264485.000000
22265412.000000,15237388.000000
22238315.000000,15196835.000000
22228800.000000,15149000.000000
Z" /> 
<path style="fill:#000000; fill-opacity:1.0; 
stroke:#000000; stroke-width:1.000000; stroke-opacity:1; 
stroke-linecap:round; stroke-linejoin:round;fill-rule:evenodd;"
d="M 21428800.000000,14899000.000000
21438315.000000,14851165.000000
21465412.000000,14810612.000000
21505965.000000,14783515.000000
21553800.000000,14774000.000000
21803800.000000,14774000.000000
21851635.000000,14783515.000000
21892188.000000,14810612.000000
21919285.000000,14851165.000000
21928800.000000,14899000.000000
21928800.000000,15149000.000000
21919285.000000,15196835.000000
21892188.000000,15237388.000000
21851635.000000,15264485.000000
21803800.000000,15274000.000000
21553800.000000,15274000.000000
21505965.000000,15264485.000000
21465412.000000,15237388.000000
21438315.000000,15196835.000000
21428800.000000,15149000.000000
Z" /> 
<path style="fill:#000000; fill-opacity:1.0; 
stroke:#000000; stroke-width:1.000000; stroke-opacity:1; 
stroke-linecap:round; stroke-linejoin:round;fill-rule:evenodd;"
d="M 20628800.000000,14899000.000000
20638315.000000,14851165.000000
20665412.000000,14810612.000000
20705965.000000,14783515.000000
20753800.000000,14774000.000000
21003800.000000,14774000.000000
21051635.000000,14783515.000000
21092188.000000,14810612.000000
21119285.000000,14851165.000000
21128800.000000,14899000.000000
21128800.000000,15149000.000000
21119285.000000,15196835.000000
21092188.000000,15237388.000000
21051635.000000,15264485.000000
21003800.000000,15274000.000000
20753800.000000,15274000.000000
20705965.000000,15264485.000000
20665412.000000,15237388.000000
20638315.000000,15196835.000000
20628800.000000,15149000.000000
Z" /> 
<path style="fill:#000000; fill-opacity:1.0; 
stroke:#000000; stroke-width:1.000000; stroke-opacity:1; 
stroke-linecap:round; stroke-linejoin:round;fill-rule:evenodd;"
d="M 19828800.000000,14899000.000000
19838315.000000,14851165.000000
19865412.000000,14810612.000000
19905965.000000,14783515.000000
19953800.000000,14774000.000000
20203800.000000,14774000.000000
20251635.000000,14783515.000000
20292188.000000,14810612.000000
20319285.000000,14851165.000000
20328800.000000,14899000.000000
20328800.000000,15149000.000000
20319285.000000,15196835.000000
20292188.000000,15237388.000000
20251635.000000,15264485.000000
20203800.000000,15274000.000000
19953800.000000,15274000.000000
19905965.000000,15264485.000000
19865412.000000,15237388.000000
19838315.000000,15196835.000000
19828800.000000,15149000.000000
Z" /> 
<path style="fill:#000000; fill-opacity:1.0; 
stroke:#000000; stroke-width:1.000000; stroke-opacity:1; 
stroke-linecap:round; stroke-linejoin:round;fill-rule:evenodd;"
d="M 19028800.000000,14899000.000000
19038315.000000,14851165.000000
19065412.000000,14810612.000000
19105965.000000,14783515.000000
19153800.000000,14774000.000000
19403800.000000,14774000.000000
19451635.000000,14783515.000000
19492188.000000,14810612.000000
19519285.000000,14851165.000000
19528800.000000,14899000.000000
19528800.000000,15149000.000000
19519285.000000,15196835.000000
19492188.000000,15237388.000000
19451635.000000,15264485.000000
19403800.000000,15274000.000000
19153800.000000,15274000.000000
19105965.000000,15264485.000000
19065412.000000,15237388.000000
19038315.000000,15196835.000000
19028800.000000,15149000.000000
Z" /> 
<path style="fill:#000000; fill-opacity:1.0; 
stroke:#000000; stroke-width:1.000000; stroke-opacity:1; 
stroke-linecap:round; stroke-linejoin:round;fill-rule:evenodd;"
d="M 19028800.000000,14099000.000000
19038315.000000,14051165.000000
19065412.000000,14010612.000000
19105965.000000,13983515.000000
19153800.000000,13974000.000000
19403800.000000,13974000.000000
19451635.000000,13983515.000000
19492188.000000,14010612.000000
19519285.000000,14051165.000000
19528800.000000,14099000.000000
19528800.000000,14349000.000000
19519285.000000,14396835.000000
19492188.000000,14437388.000000
19451635.000000,14464485.000000
19403800.000000,14474000.000000
19153800.000000,14474000.000000
19105965.000000,14464485.000000
19065412.000000,14437388.000000
19038315.000000,14396835.000000
19028800.000000,14349000.000000
Z" /> 
</g>
<g >
</g>
<g style="fill:#000000; fill-opacity:1.0; 
stroke:#000000; stroke-width:1.000000; stroke-opacity:1; 
stroke-linecap:round; stroke-linejoin:round;">
<path style="fill:#000000; fill-opacity:1.0; 
stroke:#000000; stroke-width:1.000000; stroke-opacity:1; 
stroke-linecap:round; stroke-linejoin:round;fill-rule:evenodd;"
d="M 25718401.000000,22981601.000000
27418399.000000,22981601.000000
27418399.000000,25481599.000000
25718401.000000,25481599.000000
Z" /> 
<path style="fill:#000000; fill-opacity:1.0; 
stroke:#000000; stroke-width:1.000000; stroke-opacity:1; 
stroke-linecap:round; stroke-linejoin:round;fill-rule:evenodd;"
d="M 23178401.000000,22981601.000000
24878399.000000,22981601.000000
24878399.000000,25481599.000000
23178401.000000,25481599.000000
Z" /> 
<path style="fill:#000000; fill-opacity:1.0; 
stroke:#000000; stroke-width:1.000000; stroke-opacity:1; 
stroke-linecap:round; stroke-linejoin:round;fill-rule:evenodd;"
d="M 20638401.000000,22981601.000000
22338399.000000,22981601.000000
22338399.000000,25481599.000000
20638401.000000,25481599.000000
Z" /> 
<path style="fill:#000000; fill-opacity:1.0; 
stroke:#000000; stroke-width:1.000000; stroke-opacity:1; 
stroke-linecap:round; stroke-linejoin:round;fill-rule:evenodd;"
d="M 18098401.000000,22981601.000000
19798399.000000,22981601.000000
19798399.000000,25481599.000000
18098401.000000,25481599.000000
Z" /> 
<path style="fill:#000000; fill-opacity:1.0; 
stroke:#000000; stroke-width:1.000000; stroke-opacity:1; 
stroke-linecap:round; stroke-linejoin:round;fill-rule:evenodd;"
d="M 15558401.000000,22981601.000000
17258399.000000,22981601.000000
17258399.000000,25481599.000000
15558401.000000,25481599.000000
Z" /> 
</g>
<g >
</g>
<g style="fill:#000000; fill-opacity:1.0; 
stroke:#000000; stroke-width:1.000000; stroke-opacity:1; 
stroke-linecap:round; stroke-linejoin:round;">
<path style="fill:#000000; fill-opacity:1.0; 
stroke:#000000; stroke-width:1.000000; stroke-opacity:1; 
stroke-linecap:round; stroke-linejoin:round;fill-rule:evenodd;"
d="M 17910801.000000,11009999.000000
17910801.000000,9310001.000000
19910799.000000,9310001.000000
19910799.000000,11009999.000000
Z" /> 
<path style="fill:#000000; fill-opacity:1.0; 
stroke:#000000; stroke-width:1.000000; stroke-opacity:1; 
stroke-linecap:round; stroke-linejoin:round;fill-rule:evenodd;"
d="M 21910801.000000,11009999.000000
21910801.000000,9310001.000000
23910799.000000,9310001.000000
23910799.000000,11009999.000000
Z" /> 
</g>
<g >
</g>
<g style="fill:#000000; fill-opacity:1.0; 
stroke:#000000; stroke-width:1.000000; stroke-opacity:1; 
stroke-linecap:round; stroke-linejoin:round;">
<path style="fill:#000000; fill-opacity:1.0; 
stroke:#000000; stroke-width:1.000000; stroke-opacity:1; 
stroke-linecap:round; stroke-linejoin:round;fill-rule:evenodd;"
d="M 14362799.000000,17191999.000000
12662801.000000,17191999.000000
12662801.000000,15192001.000000
14362799.000000,15192001.000000
Z" /> 
<path style="fill:#000000; fill-opacity:1.0; 
stroke:#000000; stroke-width:1.000000; stroke-opacity:1; 
stroke-linecap:round; stroke-linejoin:round;fill-rule:evenodd;"
d="M 14362799.000000,13191999.000000
12662801.000000,13191999.000000
12662801.000000,11192001.000000
14362799.000000,11192001.000000
Z" /> 
</g>
<g >
</g>
<g >
</g>
<g style="fill:#000000; fill-opacity:1.0; 
stroke:#000000; stroke-width:1.000000; stroke-opacity:1; 
stroke-linecap:round; stroke-linejoin:round;">
<path style="fill:#000000; fill-opacity:1.0; 
stroke:#000000; stroke-width:1.000000; stroke-opacity:1; 
stroke-linecap:round; stroke-linejoin:round;fill-rule:evenodd;"
d="M 12076799.000000,17191999.000000
10376801.000000,17191999.000000
10376801.000000,15192001.000000
12076799.000000,15192001.000000
Z" /> 
<path style="fill:#000000; fill-opacity:1.0; 
stroke:#000000; stroke-width:1.000000; stroke-opacity:1; 
stroke-linecap:round; stroke-linejoin:round;fill-rule:evenodd;"
d="M 12076799.000000,13191999.000000
10376801.000000,13191999.000000
10376801.000000,11192001.000000
12076799.000000,11192001.000000
Z" /> 
</g>
<g >
</g>
<g >
</g>
<g >
</g>
</g>
<g style="fill:#000000; fill-opacity:1.0; 
stroke:#000000; stroke-width:1.000000; stroke-opacity:1; 
stroke-linecap:round; stroke-linejoin:round;">
</g>
<g style="fill:#000000; fill-opacity:1.0; 
stroke:#000000; stroke-width:100000.000000; stroke-opacity:1; 
stroke-linecap:round; stroke-linejoin:round;">
</g>
<g style="fill:#000000; fill-opacity:0.0; 
stroke:#000000; stroke-width:100000.000000; stroke-opacity:1; 
stroke-linecap:round; stroke-linejoin:round;">
<path d="M33832800 7366000
L33832800 30734000
" />
<path d="M8432800 7366000
L33832800 7366000
" />
<path d="M8432800 30734000
L8432800 7366000
" />
<path d="M33832800 30734000
L8432800 30734000
" />
<g >
</g>
<g >
</g>
<g >
</g>
<g >
</g>
<g >
</g>
<g >
</g>
<g >
</g>
<g >
</g>
<g >
</g>
<g >
</g>
<g >
</g>
<g >
</g>
<g >
</g>
</g> 
</svg>
