%TF.GenerationSoftware,KiCad,Pcbnew,(6.0.2)*%
%TF.CreationDate,2022-10-26T11:31:38+03:00*%
%TF.ProjectId,laser_breakout,6c617365-725f-4627-9265-616b6f75742e,rev?*%
%TF.SameCoordinates,Original*%
%TF.FileFunction,Copper,L1,Top*%
%TF.FilePolarity,Positive*%
%FSLAX46Y46*%
G04 Gerber Fmt 4.6, Leading zero omitted, Abs format (unit mm)*
G04 Created by KiCad (PCBNEW (6.0.2)) date 2022-10-26 11:31:38*
%MOMM*%
%LPD*%
G01*
G04 APERTURE LIST*
G04 Aperture macros list*
%AMRoundRect*
0 Rectangle with rounded corners*
0 $1 Rounding radius*
0 $2 $3 $4 $5 $6 $7 $8 $9 X,Y pos of 4 corners*
0 Add a 4 corners polygon primitive as box body*
4,1,4,$2,$3,$4,$5,$6,$7,$8,$9,$2,$3,0*
0 Add four circle primitives for the rounded corners*
1,1,$1+$1,$2,$3*
1,1,$1+$1,$4,$5*
1,1,$1+$1,$6,$7*
1,1,$1+$1,$8,$9*
0 Add four rect primitives between the rounded corners*
20,1,$1+$1,$2,$3,$4,$5,0*
20,1,$1+$1,$4,$5,$6,$7,0*
20,1,$1+$1,$6,$7,$8,$9,0*
20,1,$1+$1,$8,$9,$2,$3,0*%
G04 Aperture macros list end*
%TA.AperFunction,ComponentPad*%
%ADD10C,1.700000*%
%TD*%
%TA.AperFunction,ComponentPad*%
%ADD11O,1.700000X1.700000*%
%TD*%
%TA.AperFunction,SMDPad,CuDef*%
%ADD12R,1.700000X2.000000*%
%TD*%
%TA.AperFunction,SMDPad,CuDef*%
%ADD13R,2.000000X1.700000*%
%TD*%
%TA.AperFunction,SMDPad,CuDef*%
%ADD14RoundRect,0.125000X-0.125000X-0.125000X0.125000X-0.125000X0.125000X0.125000X-0.125000X0.125000X0*%
%TD*%
%TA.AperFunction,SMDPad,CuDef*%
%ADD15RoundRect,0.062500X-0.127500X-0.062500X0.127500X-0.062500X0.127500X0.062500X-0.127500X0.062500X0*%
%TD*%
%TA.AperFunction,SMDPad,CuDef*%
%ADD16R,1.700000X2.500000*%
%TD*%
%TA.AperFunction,Conductor*%
%ADD17C,1.400000*%
%TD*%
%TA.AperFunction,Conductor*%
%ADD18C,0.500000*%
%TD*%
G04 APERTURE END LIST*
D10*
%TO.P,J1,1,Pin_1*%
%TO.N,GND*%
X75285600Y-88544400D03*
D11*
%TO.P,J1,2,Pin_2*%
%TO.N,SDA*%
X72745600Y-88544400D03*
%TO.P,J1,3,Pin_3*%
%TO.N,SCL*%
X70205600Y-88544400D03*
%TO.P,J1,4,Pin_4*%
%TO.N,XSHUT*%
X67665600Y-88544400D03*
%TO.P,J1,5,Pin_5*%
%TO.N,+3V3*%
X65125600Y-88544400D03*
%TD*%
D12*
%TO.P,R3,1*%
%TO.N,+3V3*%
X64516000Y-77406000D03*
%TO.P,R3,2*%
X64516000Y-73406000D03*
%TD*%
D13*
%TO.P,R1,1*%
%TO.N,+3V3*%
X67272400Y-82042000D03*
%TO.P,R1,2*%
%TO.N,SCL*%
X71272400Y-82042000D03*
%TD*%
%TO.P,R2,1*%
%TO.N,+3V3*%
X67272400Y-79756000D03*
%TO.P,R2,2*%
%TO.N,SDA*%
X71272400Y-79756000D03*
%TD*%
D14*
%TO.P,U1,1,AVDDVCSEL*%
%TO.N,+3V3*%
X67996000Y-74638000D03*
D15*
X67856000Y-74763000D03*
D14*
%TO.P,U1,2,AVSSVCSEL*%
%TO.N,GND*%
X68796000Y-74638000D03*
%TO.P,U1,3,GND*%
X69596000Y-74638000D03*
%TO.P,U1,4,GND*%
X70396000Y-74638000D03*
%TO.P,U1,5,XSHUT*%
%TO.N,XSHUT*%
X71196000Y-74638000D03*
%TO.P,U1,6,GND*%
%TO.N,GND*%
X71196000Y-75438000D03*
%TO.P,U1,7,GPIO1*%
%TO.N,unconnected-(U1-Pad7)*%
X71196000Y-76238000D03*
%TO.P,U1,8,DNC*%
%TO.N,unconnected-(U1-Pad8)*%
X70396000Y-76238000D03*
%TO.P,U1,9,SDA*%
%TO.N,SDA*%
X69596000Y-76238000D03*
%TO.P,U1,10,SCL*%
%TO.N,SCL*%
X68796000Y-76238000D03*
%TO.P,U1,11,AVDD*%
%TO.N,+3V3*%
X67996000Y-76238000D03*
%TO.P,U1,12,GND*%
%TO.N,GND*%
X67996000Y-75438000D03*
%TD*%
D16*
%TO.P,J2,1,Pin_1*%
%TO.N,GND*%
X75285600Y-85445600D03*
%TO.P,J2,2,Pin_2*%
%TO.N,SDA*%
X72745600Y-85445600D03*
%TO.P,J2,3,Pin_3*%
%TO.N,SCL*%
X70205600Y-85445600D03*
%TO.P,J2,4,Pin_4*%
%TO.N,XSHUT*%
X67665600Y-85445600D03*
%TO.P,J2,5,Pin_5*%
%TO.N,+3V3*%
X65125600Y-85445600D03*
%TD*%
D13*
%TO.P,R4,1*%
%TO.N,+3V3*%
X67628000Y-71374000D03*
%TO.P,R4,2*%
%TO.N,XSHUT*%
X71628000Y-71374000D03*
%TD*%
D12*
%TO.P,C2,1*%
%TO.N,+3V3*%
X62230000Y-77406000D03*
%TO.P,C2,2*%
%TO.N,GND*%
X62230000Y-73406000D03*
%TD*%
%TO.P,C1,1*%
%TO.N,+3V3*%
X59944000Y-77406000D03*
%TO.P,C1,2*%
%TO.N,GND*%
X59944000Y-73406000D03*
%TD*%
D17*
%TO.N,GND*%
X75285600Y-88544400D02*
X75285600Y-85445600D01*
%TO.N,SDA*%
X72745600Y-88544400D02*
X72745600Y-85445600D01*
%TO.N,SCL*%
X70205600Y-88544400D02*
X70205600Y-85445600D01*
%TO.N,XSHUT*%
X67665600Y-88544400D02*
X67665600Y-85445600D01*
%TO.N,+3V3*%
X65125600Y-88544400D02*
X65125600Y-85445600D01*
X59944000Y-77406000D02*
X62230000Y-77406000D01*
D18*
X66510000Y-74638000D02*
X65278000Y-73406000D01*
D17*
X64719200Y-82042000D02*
X62230000Y-79552800D01*
X65125600Y-71374000D02*
X67628000Y-71374000D01*
X64516000Y-73406000D02*
X64516000Y-71983600D01*
X62230000Y-79552800D02*
X62230000Y-77406000D01*
X62230000Y-85445600D02*
X59944000Y-83159600D01*
X59944000Y-83159600D02*
X59944000Y-77406000D01*
X67272400Y-82042000D02*
X64719200Y-82042000D01*
D18*
X66510000Y-76238000D02*
X67996000Y-76238000D01*
D17*
X67272400Y-82042000D02*
X67272400Y-79756000D01*
D18*
X67996000Y-74638000D02*
X66510000Y-74638000D01*
D17*
X64516000Y-71983600D02*
X65125600Y-71374000D01*
X65125600Y-85445600D02*
X62230000Y-85445600D01*
D18*
X65342000Y-77406000D02*
X66510000Y-76238000D01*
X65278000Y-73406000D02*
X64516000Y-73406000D01*
X64516000Y-77406000D02*
X65342000Y-77406000D01*
D17*
X62230000Y-77406000D02*
X64516000Y-77406000D01*
D18*
%TO.N,GND*%
X68796000Y-73266400D02*
X68783200Y-73253600D01*
X72593200Y-75438000D02*
X72644000Y-75387200D01*
X71196000Y-75438000D02*
X72593200Y-75438000D01*
X69596000Y-74638000D02*
X69596000Y-73355200D01*
X70408800Y-74625200D02*
X70408800Y-73304400D01*
X67996000Y-75438000D02*
X66446400Y-75438000D01*
X68796000Y-74638000D02*
X68796000Y-73266400D01*
X70396000Y-74638000D02*
X70408800Y-74625200D01*
%TO.N,SDA*%
X69596000Y-78079600D02*
X69596000Y-76238000D01*
X73660000Y-83210400D02*
X73660000Y-80365600D01*
X73050400Y-79756000D02*
X71272400Y-79756000D01*
X71272400Y-79756000D02*
X69596000Y-78079600D01*
X73660000Y-80365600D02*
X73050400Y-79756000D01*
X72745600Y-85445600D02*
X72745600Y-84124800D01*
X72745600Y-84124800D02*
X73660000Y-83210400D01*
%TO.N,SCL*%
X71272400Y-83362800D02*
X71272400Y-82042000D01*
X70205600Y-85445600D02*
X70205600Y-84429600D01*
X71272400Y-82042000D02*
X69545200Y-82042000D01*
X68796000Y-81292800D02*
X68796000Y-76238000D01*
X69545200Y-82042000D02*
X68796000Y-81292800D01*
X70205600Y-84429600D02*
X71272400Y-83362800D01*
%TO.N,XSHUT*%
X71208800Y-74638000D02*
X71628000Y-74218800D01*
X71628000Y-74218800D02*
X71628000Y-71374000D01*
X80467200Y-88087200D02*
X80467200Y-72999600D01*
X80467200Y-72999600D02*
X78841600Y-71374000D01*
X71196000Y-74638000D02*
X71208800Y-74638000D01*
X78841600Y-71374000D02*
X71628000Y-71374000D01*
X78028800Y-90525600D02*
X80467200Y-88087200D01*
X67665600Y-89509600D02*
X68681600Y-90525600D01*
X68681600Y-90525600D02*
X78028800Y-90525600D01*
%TD*%
%TA.AperFunction,Conductor*%
%TO.N,GND*%
G36*
X82238121Y-68854002D02*
G01*
X82284614Y-68907658D01*
X82296000Y-68960000D01*
X82296000Y-91568000D01*
X82275998Y-91636121D01*
X82222342Y-91682614D01*
X82170000Y-91694000D01*
X57530000Y-91694000D01*
X57461879Y-91673998D01*
X57415386Y-91620342D01*
X57404000Y-91568000D01*
X57404000Y-76380933D01*
X58839500Y-76380933D01*
X58839501Y-78431066D01*
X58854266Y-78505301D01*
X58861161Y-78515620D01*
X58861162Y-78515622D01*
X58875343Y-78536845D01*
X58910516Y-78589484D01*
X58933504Y-78604844D01*
X58979030Y-78659321D01*
X58989500Y-78709608D01*
X58989500Y-83144124D01*
X58989451Y-83147643D01*
X58987154Y-83229867D01*
X58988263Y-83236153D01*
X58988263Y-83236160D01*
X58997112Y-83286341D01*
X58998381Y-83295484D01*
X59004174Y-83352519D01*
X59006081Y-83358605D01*
X59006082Y-83358609D01*
X59012272Y-83378360D01*
X59016124Y-83394160D01*
X59020827Y-83420832D01*
X59023175Y-83426763D01*
X59023177Y-83426769D01*
X59041933Y-83474140D01*
X59045010Y-83482827D01*
X59062161Y-83537557D01*
X59069504Y-83550805D01*
X59075294Y-83561250D01*
X59082240Y-83575942D01*
X59092211Y-83601126D01*
X59103065Y-83617712D01*
X59123600Y-83649093D01*
X59128370Y-83657001D01*
X59153076Y-83701573D01*
X59153080Y-83701579D01*
X59156171Y-83707155D01*
X59160319Y-83711995D01*
X59160322Y-83711999D01*
X59173794Y-83727717D01*
X59183555Y-83740716D01*
X59198389Y-83763384D01*
X59202659Y-83768126D01*
X59239615Y-83805082D01*
X59246188Y-83812179D01*
X59282364Y-83854386D01*
X59305330Y-83872201D01*
X59317192Y-83882659D01*
X61544125Y-86109592D01*
X61546577Y-86112113D01*
X61603094Y-86171878D01*
X61608327Y-86175542D01*
X61608329Y-86175544D01*
X61650065Y-86204768D01*
X61657407Y-86210320D01*
X61701857Y-86246572D01*
X61725866Y-86259124D01*
X61739748Y-86267564D01*
X61761937Y-86283101D01*
X61767795Y-86285636D01*
X61814551Y-86305869D01*
X61822885Y-86309844D01*
X61873701Y-86336410D01*
X61899742Y-86343877D01*
X61915046Y-86349357D01*
X61927337Y-86354675D01*
X61939900Y-86360112D01*
X61996039Y-86371840D01*
X62004962Y-86374048D01*
X62060100Y-86389859D01*
X62066464Y-86390349D01*
X62066466Y-86390349D01*
X62075728Y-86391061D01*
X62087112Y-86391937D01*
X62103201Y-86394227D01*
X62129713Y-86399766D01*
X62136086Y-86400100D01*
X62188356Y-86400100D01*
X62198022Y-86400471D01*
X62247084Y-86404246D01*
X62253440Y-86404735D01*
X62259763Y-86403936D01*
X62259773Y-86403936D01*
X62282269Y-86401094D01*
X62298061Y-86400100D01*
X63895101Y-86400100D01*
X63963222Y-86420102D01*
X64009715Y-86473758D01*
X64021101Y-86526100D01*
X64021101Y-86720666D01*
X64035866Y-86794901D01*
X64092116Y-86879084D01*
X64115104Y-86894444D01*
X64160630Y-86948921D01*
X64171100Y-86999208D01*
X64171100Y-87955180D01*
X64156608Y-88013847D01*
X64100803Y-88119915D01*
X64040607Y-88313778D01*
X64016748Y-88515364D01*
X64030024Y-88717922D01*
X64031445Y-88723518D01*
X64031446Y-88723523D01*
X64051719Y-88803345D01*
X64079992Y-88914669D01*
X64082409Y-88919912D01*
X64119610Y-89000608D01*
X64164977Y-89099016D01*
X64168310Y-89103732D01*
X64265731Y-89241580D01*
X64282133Y-89264789D01*
X64427538Y-89406435D01*
X64432342Y-89409645D01*
X64500000Y-89454853D01*
X64596320Y-89519212D01*
X64601623Y-89521490D01*
X64601626Y-89521492D01*
X64690307Y-89559592D01*
X64782828Y-89599342D01*
X64843007Y-89612959D01*
X64975179Y-89642867D01*
X64975184Y-89642868D01*
X64980816Y-89644142D01*
X64986587Y-89644369D01*
X64986589Y-89644369D01*
X65046356Y-89646717D01*
X65183653Y-89652112D01*
X65284099Y-89637548D01*
X65378831Y-89623813D01*
X65378836Y-89623812D01*
X65384545Y-89622984D01*
X65390009Y-89621129D01*
X65390014Y-89621128D01*
X65571293Y-89559592D01*
X65571298Y-89559590D01*
X65576765Y-89557734D01*
X65753876Y-89458547D01*
X65816534Y-89406435D01*
X65905513Y-89332431D01*
X65909945Y-89328745D01*
X65967063Y-89260069D01*
X66036053Y-89177118D01*
X66036055Y-89177115D01*
X66039747Y-89172676D01*
X66138934Y-88995565D01*
X66140790Y-88990098D01*
X66140792Y-88990093D01*
X66202328Y-88808814D01*
X66202329Y-88808809D01*
X66204184Y-88803345D01*
X66205012Y-88797636D01*
X66205013Y-88797631D01*
X66232779Y-88606127D01*
X66233312Y-88602453D01*
X66234832Y-88544400D01*
X66218534Y-88367030D01*
X66216787Y-88348013D01*
X66216786Y-88348010D01*
X66216258Y-88342259D01*
X66210984Y-88323559D01*
X66162725Y-88152446D01*
X66162724Y-88152444D01*
X66161157Y-88146887D01*
X66157667Y-88139808D01*
X66093094Y-88008868D01*
X66080100Y-87953140D01*
X66080100Y-86999208D01*
X66100102Y-86931087D01*
X66136095Y-86894445D01*
X66159084Y-86879084D01*
X66215334Y-86794901D01*
X66230100Y-86720667D01*
X66230099Y-84170534D01*
X66222988Y-84134782D01*
X66217756Y-84108474D01*
X66217755Y-84108472D01*
X66215334Y-84096299D01*
X66181547Y-84045733D01*
X66165977Y-84022432D01*
X66159084Y-84012116D01*
X66074901Y-83955866D01*
X66000667Y-83941100D01*
X65125742Y-83941100D01*
X64250534Y-83941101D01*
X64214782Y-83948212D01*
X64188474Y-83953444D01*
X64188472Y-83953445D01*
X64176299Y-83955866D01*
X64165979Y-83962761D01*
X64165978Y-83962762D01*
X64111359Y-83999258D01*
X64092116Y-84012116D01*
X64035866Y-84096299D01*
X64021100Y-84170533D01*
X64021100Y-84365100D01*
X64001098Y-84433221D01*
X63947442Y-84479714D01*
X63895100Y-84491100D01*
X62677557Y-84491100D01*
X62609436Y-84471098D01*
X62588462Y-84454195D01*
X60935405Y-82801138D01*
X60901379Y-82738826D01*
X60898500Y-82712043D01*
X60898500Y-78709608D01*
X60918502Y-78641487D01*
X60954495Y-78604845D01*
X60977484Y-78589484D01*
X60984377Y-78579168D01*
X60993154Y-78570391D01*
X60994711Y-78571948D01*
X61036715Y-78536845D01*
X61107158Y-78527999D01*
X61171201Y-78558642D01*
X61184857Y-78574402D01*
X61189623Y-78579168D01*
X61196516Y-78589484D01*
X61219504Y-78604844D01*
X61265030Y-78659321D01*
X61275500Y-78709608D01*
X61275500Y-79537324D01*
X61275451Y-79540843D01*
X61273154Y-79623067D01*
X61274263Y-79629353D01*
X61274263Y-79629360D01*
X61283112Y-79679541D01*
X61284381Y-79688684D01*
X61290174Y-79745719D01*
X61292081Y-79751805D01*
X61292082Y-79751809D01*
X61298272Y-79771560D01*
X61302124Y-79787360D01*
X61306827Y-79814032D01*
X61309175Y-79819963D01*
X61309177Y-79819969D01*
X61327933Y-79867340D01*
X61331010Y-79876027D01*
X61348161Y-79930757D01*
X61351257Y-79936342D01*
X61361294Y-79954450D01*
X61368240Y-79969142D01*
X61378211Y-79994326D01*
X61394323Y-80018947D01*
X61409600Y-80042293D01*
X61414370Y-80050201D01*
X61439076Y-80094773D01*
X61439080Y-80094779D01*
X61442171Y-80100355D01*
X61446319Y-80105195D01*
X61446322Y-80105199D01*
X61459794Y-80120917D01*
X61469555Y-80133916D01*
X61484389Y-80156584D01*
X61488659Y-80161326D01*
X61525615Y-80198282D01*
X61532188Y-80205379D01*
X61568364Y-80247586D01*
X61591330Y-80265401D01*
X61603192Y-80275859D01*
X64033325Y-82705992D01*
X64035777Y-82708513D01*
X64092294Y-82768278D01*
X64139286Y-82801182D01*
X64146611Y-82806722D01*
X64191057Y-82842971D01*
X64196714Y-82845928D01*
X64196715Y-82845929D01*
X64215052Y-82855515D01*
X64228950Y-82863965D01*
X64251137Y-82879501D01*
X64256989Y-82882033D01*
X64256990Y-82882034D01*
X64303755Y-82902271D01*
X64312088Y-82906246D01*
X64332785Y-82917066D01*
X64362901Y-82932810D01*
X64388942Y-82940277D01*
X64404246Y-82945757D01*
X64412293Y-82949239D01*
X64429100Y-82956512D01*
X64485239Y-82968240D01*
X64494162Y-82970448D01*
X64549300Y-82986259D01*
X64555664Y-82986749D01*
X64555666Y-82986749D01*
X64564928Y-82987461D01*
X64576312Y-82988337D01*
X64592401Y-82990627D01*
X64618913Y-82996166D01*
X64625286Y-82996500D01*
X64677556Y-82996500D01*
X64687222Y-82996871D01*
X64736284Y-83000646D01*
X64742640Y-83001135D01*
X64748963Y-83000336D01*
X64748973Y-83000336D01*
X64771469Y-82997494D01*
X64787261Y-82996500D01*
X65968792Y-82996500D01*
X66036913Y-83016502D01*
X66073555Y-83052495D01*
X66088916Y-83075484D01*
X66173099Y-83131734D01*
X66247333Y-83146500D01*
X67272234Y-83146500D01*
X68297466Y-83146499D01*
X68333218Y-83139388D01*
X68359526Y-83134156D01*
X68359528Y-83134155D01*
X68371701Y-83131734D01*
X68382021Y-83124839D01*
X68382022Y-83124838D01*
X68445568Y-83082377D01*
X68455884Y-83075484D01*
X68512134Y-82991301D01*
X68526900Y-82917067D01*
X68526899Y-82041359D01*
X68546901Y-81973239D01*
X68600557Y-81926746D01*
X68670831Y-81916642D01*
X68735411Y-81946135D01*
X68741994Y-81952265D01*
X69138523Y-82348794D01*
X69146065Y-82358234D01*
X69146445Y-82357911D01*
X69152263Y-82364747D01*
X69157053Y-82372339D01*
X69163781Y-82378281D01*
X69197059Y-82407671D01*
X69202746Y-82413017D01*
X69214080Y-82424351D01*
X69217666Y-82427038D01*
X69217671Y-82427043D01*
X69222359Y-82430557D01*
X69230197Y-82436938D01*
X69265370Y-82468001D01*
X69273495Y-82471816D01*
X69276316Y-82473669D01*
X69290312Y-82482077D01*
X69293250Y-82483686D01*
X69300436Y-82489071D01*
X69308841Y-82492222D01*
X69308843Y-82492223D01*
X69344378Y-82505544D01*
X69353692Y-82509468D01*
X69396182Y-82529417D01*
X69405053Y-82530798D01*
X69408275Y-82531783D01*
X69424066Y-82535925D01*
X69427344Y-82536646D01*
X69435752Y-82539798D01*
X69449509Y-82540820D01*
X69482557Y-82543276D01*
X69492604Y-82544430D01*
X69501086Y-82545751D01*
X69501089Y-82545751D01*
X69505897Y-82546500D01*
X69521262Y-82546500D01*
X69530600Y-82546846D01*
X69579867Y-82550507D01*
X69588642Y-82548634D01*
X69597338Y-82548041D01*
X69611938Y-82546500D01*
X69891901Y-82546500D01*
X69960022Y-82566502D01*
X70006515Y-82620158D01*
X70017901Y-82672500D01*
X70017901Y-82917066D01*
X70022964Y-82942522D01*
X70028078Y-82968232D01*
X70032666Y-82991301D01*
X70088916Y-83075484D01*
X70173099Y-83131734D01*
X70247333Y-83146500D01*
X70471039Y-83146500D01*
X70539160Y-83166502D01*
X70585653Y-83220158D01*
X70595757Y-83290432D01*
X70566263Y-83355012D01*
X70560134Y-83361595D01*
X70017533Y-83904196D01*
X69955221Y-83938222D01*
X69928438Y-83941101D01*
X69330534Y-83941101D01*
X69294782Y-83948212D01*
X69268474Y-83953444D01*
X69268472Y-83953445D01*
X69256299Y-83955866D01*
X69245979Y-83962761D01*
X69245978Y-83962762D01*
X69191359Y-83999258D01*
X69172116Y-84012116D01*
X69115866Y-84096299D01*
X69101100Y-84170533D01*
X69101101Y-86720666D01*
X69115866Y-86794901D01*
X69172116Y-86879084D01*
X69195104Y-86894444D01*
X69240630Y-86948921D01*
X69251100Y-86999208D01*
X69251100Y-87955180D01*
X69236608Y-88013847D01*
X69180803Y-88119915D01*
X69120607Y-88313778D01*
X69096748Y-88515364D01*
X69110024Y-88717922D01*
X69111445Y-88723518D01*
X69111446Y-88723523D01*
X69131719Y-88803345D01*
X69159992Y-88914669D01*
X69162409Y-88919912D01*
X69199610Y-89000608D01*
X69244977Y-89099016D01*
X69248310Y-89103732D01*
X69345731Y-89241580D01*
X69362133Y-89264789D01*
X69507538Y-89406435D01*
X69512342Y-89409645D01*
X69580000Y-89454853D01*
X69676320Y-89519212D01*
X69681623Y-89521490D01*
X69681626Y-89521492D01*
X69770307Y-89559592D01*
X69862828Y-89599342D01*
X69923007Y-89612959D01*
X70055179Y-89642867D01*
X70055184Y-89642868D01*
X70060816Y-89644142D01*
X70066587Y-89644369D01*
X70066589Y-89644369D01*
X70126356Y-89646717D01*
X70263653Y-89652112D01*
X70364099Y-89637548D01*
X70458831Y-89623813D01*
X70458836Y-89623812D01*
X70464545Y-89622984D01*
X70470009Y-89621129D01*
X70470014Y-89621128D01*
X70651293Y-89559592D01*
X70651298Y-89559590D01*
X70656765Y-89557734D01*
X70833876Y-89458547D01*
X70896534Y-89406435D01*
X70985513Y-89332431D01*
X70989945Y-89328745D01*
X71047063Y-89260069D01*
X71116053Y-89177118D01*
X71116055Y-89177115D01*
X71119747Y-89172676D01*
X71218934Y-88995565D01*
X71220790Y-88990098D01*
X71220792Y-88990093D01*
X71282328Y-88808814D01*
X71282329Y-88808809D01*
X71284184Y-88803345D01*
X71285012Y-88797636D01*
X71285013Y-88797631D01*
X71312779Y-88606127D01*
X71313312Y-88602453D01*
X71314832Y-88544400D01*
X71298534Y-88367030D01*
X71296787Y-88348013D01*
X71296786Y-88348010D01*
X71296258Y-88342259D01*
X71290984Y-88323559D01*
X71242725Y-88152446D01*
X71242724Y-88152444D01*
X71241157Y-88146887D01*
X71237667Y-88139808D01*
X71173094Y-88008868D01*
X71160100Y-87953140D01*
X71160100Y-86999208D01*
X71180102Y-86931087D01*
X71216095Y-86894445D01*
X71239084Y-86879084D01*
X71295334Y-86794901D01*
X71310100Y-86720667D01*
X71310099Y-84170534D01*
X71301344Y-84126517D01*
X71307673Y-84055804D01*
X71335828Y-84012843D01*
X71579194Y-83769477D01*
X71588634Y-83761935D01*
X71588311Y-83761555D01*
X71595147Y-83755737D01*
X71602739Y-83750947D01*
X71638072Y-83710940D01*
X71643417Y-83705254D01*
X71654751Y-83693920D01*
X71657438Y-83690335D01*
X71660953Y-83685645D01*
X71667340Y-83677800D01*
X71692460Y-83649357D01*
X71698401Y-83642630D01*
X71702214Y-83634508D01*
X71704054Y-83631707D01*
X71712463Y-83617712D01*
X71714085Y-83614749D01*
X71719470Y-83607564D01*
X71722624Y-83599152D01*
X71735946Y-83563618D01*
X71739871Y-83554302D01*
X71744383Y-83544691D01*
X71759817Y-83511818D01*
X71761199Y-83502944D01*
X71762185Y-83499717D01*
X71766325Y-83483934D01*
X71767046Y-83480656D01*
X71770198Y-83472248D01*
X71773676Y-83425443D01*
X71774830Y-83415396D01*
X71776151Y-83406914D01*
X71776151Y-83406911D01*
X71776900Y-83402103D01*
X71776900Y-83386738D01*
X71777246Y-83377401D01*
X71780242Y-83337081D01*
X71780907Y-83328133D01*
X71779034Y-83319358D01*
X71778441Y-83310662D01*
X71776900Y-83296062D01*
X71776900Y-83272499D01*
X71796902Y-83204378D01*
X71850558Y-83157885D01*
X71902900Y-83146499D01*
X72297466Y-83146499D01*
X72333218Y-83139388D01*
X72359526Y-83134156D01*
X72359528Y-83134155D01*
X72371701Y-83131734D01*
X72382021Y-83124839D01*
X72382022Y-83124838D01*
X72445568Y-83082377D01*
X72455884Y-83075484D01*
X72512134Y-82991301D01*
X72526900Y-82917067D01*
X72526899Y-81166934D01*
X72512134Y-81092699D01*
X72501665Y-81077030D01*
X72462777Y-81018832D01*
X72455884Y-81008516D01*
X72445568Y-81001623D01*
X72436791Y-80992846D01*
X72438348Y-80991289D01*
X72403245Y-80949285D01*
X72394399Y-80878842D01*
X72425042Y-80814799D01*
X72440802Y-80801143D01*
X72445568Y-80796377D01*
X72455884Y-80789484D01*
X72512134Y-80705301D01*
X72526900Y-80631067D01*
X72526900Y-80386500D01*
X72546902Y-80318379D01*
X72600558Y-80271886D01*
X72652900Y-80260500D01*
X72789238Y-80260500D01*
X72857359Y-80280502D01*
X72878333Y-80297404D01*
X73118595Y-80537665D01*
X73152620Y-80599978D01*
X73155500Y-80626761D01*
X73155500Y-82949239D01*
X73135498Y-83017360D01*
X73118595Y-83038334D01*
X72438806Y-83718123D01*
X72429366Y-83725665D01*
X72429689Y-83726045D01*
X72422853Y-83731863D01*
X72415261Y-83736653D01*
X72409319Y-83743381D01*
X72379929Y-83776659D01*
X72374583Y-83782346D01*
X72363249Y-83793680D01*
X72360564Y-83797263D01*
X72360562Y-83797265D01*
X72357047Y-83801955D01*
X72350662Y-83809798D01*
X72319599Y-83844970D01*
X72315786Y-83853092D01*
X72313946Y-83855893D01*
X72305526Y-83869907D01*
X72303912Y-83872854D01*
X72298530Y-83880036D01*
X72298530Y-83880037D01*
X72298209Y-83879796D01*
X72252145Y-83925757D01*
X72191884Y-83941101D01*
X71870534Y-83941101D01*
X71834782Y-83948212D01*
X71808474Y-83953444D01*
X71808472Y-83953445D01*
X71796299Y-83955866D01*
X71785979Y-83962761D01*
X71785978Y-83962762D01*
X71731359Y-83999258D01*
X71712116Y-84012116D01*
X71655866Y-84096299D01*
X71641100Y-84170533D01*
X71641101Y-86720666D01*
X71655866Y-86794901D01*
X71712116Y-86879084D01*
X71735104Y-86894444D01*
X71780630Y-86948921D01*
X71791100Y-86999208D01*
X71791100Y-87955180D01*
X71776608Y-88013847D01*
X71720803Y-88119915D01*
X71660607Y-88313778D01*
X71636748Y-88515364D01*
X71650024Y-88717922D01*
X71651445Y-88723518D01*
X71651446Y-88723523D01*
X71671719Y-88803345D01*
X71699992Y-88914669D01*
X71702409Y-88919912D01*
X71739610Y-89000608D01*
X71784977Y-89099016D01*
X71788310Y-89103732D01*
X71885731Y-89241580D01*
X71902133Y-89264789D01*
X72047538Y-89406435D01*
X72052342Y-89409645D01*
X72120000Y-89454853D01*
X72216320Y-89519212D01*
X72221623Y-89521490D01*
X72221626Y-89521492D01*
X72310307Y-89559592D01*
X72402828Y-89599342D01*
X72463007Y-89612959D01*
X72595179Y-89642867D01*
X72595184Y-89642868D01*
X72600816Y-89644142D01*
X72606587Y-89644369D01*
X72606589Y-89644369D01*
X72666356Y-89646717D01*
X72803653Y-89652112D01*
X72904099Y-89637548D01*
X72998831Y-89623813D01*
X72998836Y-89623812D01*
X73004545Y-89622984D01*
X73010009Y-89621129D01*
X73010014Y-89621128D01*
X73191293Y-89559592D01*
X73191298Y-89559590D01*
X73196765Y-89557734D01*
X73373876Y-89458547D01*
X73436534Y-89406435D01*
X73525513Y-89332431D01*
X73529945Y-89328745D01*
X73587063Y-89260069D01*
X73656053Y-89177118D01*
X73656055Y-89177115D01*
X73659747Y-89172676D01*
X73758934Y-88995565D01*
X73761320Y-88988535D01*
X73761770Y-88987896D01*
X73763141Y-88984816D01*
X73763746Y-88985085D01*
X73802153Y-88930459D01*
X73867905Y-88903678D01*
X73937698Y-88916695D01*
X73989373Y-88965380D01*
X73997377Y-88981629D01*
X74067370Y-89154003D01*
X74072013Y-89163194D01*
X74152060Y-89293820D01*
X74162516Y-89303280D01*
X74171294Y-89299496D01*
X74913578Y-88557212D01*
X74919956Y-88545532D01*
X75650008Y-88545532D01*
X75650139Y-88547365D01*
X75654390Y-88553980D01*
X76396074Y-89295664D01*
X76408084Y-89302223D01*
X76419823Y-89293255D01*
X76450604Y-89250419D01*
X76455915Y-89241580D01*
X76550270Y-89050667D01*
X76554069Y-89041072D01*
X76615976Y-88837315D01*
X76618155Y-88827234D01*
X76646190Y-88614287D01*
X76646709Y-88607612D01*
X76648172Y-88547764D01*
X76647978Y-88541046D01*
X76630381Y-88327004D01*
X76628696Y-88316824D01*
X76576814Y-88110275D01*
X76573494Y-88100524D01*
X76488572Y-87905214D01*
X76483705Y-87896139D01*
X76418663Y-87795597D01*
X76407977Y-87786395D01*
X76398412Y-87790798D01*
X75657622Y-88531588D01*
X75650008Y-88545532D01*
X74919956Y-88545532D01*
X74921192Y-88543268D01*
X74921061Y-88541435D01*
X74916810Y-88534820D01*
X74175449Y-87793459D01*
X74163913Y-87787159D01*
X74151631Y-87796782D01*
X74103689Y-87867062D01*
X74098604Y-87876013D01*
X74008938Y-88069183D01*
X74005377Y-88078864D01*
X74000891Y-88095040D01*
X73963413Y-88155339D01*
X73899284Y-88185803D01*
X73828866Y-88176760D01*
X73774515Y-88131082D01*
X73766467Y-88117098D01*
X73713094Y-88008868D01*
X73700100Y-87953140D01*
X73700100Y-86999208D01*
X73720102Y-86931087D01*
X73756095Y-86894445D01*
X73779084Y-86879084D01*
X73779626Y-86878272D01*
X73834991Y-86848040D01*
X73905806Y-86853105D01*
X73962642Y-86895652D01*
X73979757Y-86926934D01*
X73982276Y-86933655D01*
X73990814Y-86949249D01*
X74067315Y-87051324D01*
X74079876Y-87063885D01*
X74181951Y-87140386D01*
X74197546Y-87148924D01*
X74317994Y-87194078D01*
X74333249Y-87197705D01*
X74384114Y-87203231D01*
X74390928Y-87203600D01*
X74437685Y-87203600D01*
X74505806Y-87223602D01*
X74552299Y-87277258D01*
X74562403Y-87347532D01*
X74538661Y-87404964D01*
X74526822Y-87420826D01*
X74533568Y-87433158D01*
X75272788Y-88172378D01*
X75286732Y-88179992D01*
X75288565Y-88179861D01*
X75295180Y-88175610D01*
X76038989Y-87431801D01*
X76046010Y-87418945D01*
X76034973Y-87403797D01*
X76011024Y-87336962D01*
X76027012Y-87267789D01*
X76077859Y-87218240D01*
X76136809Y-87203599D01*
X76180269Y-87203599D01*
X76187090Y-87203229D01*
X76237952Y-87197705D01*
X76253204Y-87194079D01*
X76373654Y-87148924D01*
X76389249Y-87140386D01*
X76491324Y-87063885D01*
X76503885Y-87051324D01*
X76580386Y-86949249D01*
X76588924Y-86933654D01*
X76634078Y-86813206D01*
X76637705Y-86797951D01*
X76643231Y-86747086D01*
X76643600Y-86740272D01*
X76643600Y-85717715D01*
X76639125Y-85702476D01*
X76637735Y-85701271D01*
X76630052Y-85699600D01*
X75157600Y-85699600D01*
X75089479Y-85679598D01*
X75042986Y-85625942D01*
X75031600Y-85573600D01*
X75031600Y-85173485D01*
X75539600Y-85173485D01*
X75544075Y-85188724D01*
X75545465Y-85189929D01*
X75553148Y-85191600D01*
X76625484Y-85191600D01*
X76640723Y-85187125D01*
X76641928Y-85185735D01*
X76643599Y-85178052D01*
X76643599Y-84150931D01*
X76643229Y-84144110D01*
X76637705Y-84093248D01*
X76634079Y-84077996D01*
X76588924Y-83957546D01*
X76580386Y-83941951D01*
X76503885Y-83839876D01*
X76491324Y-83827315D01*
X76389249Y-83750814D01*
X76373654Y-83742276D01*
X76253206Y-83697122D01*
X76237951Y-83693495D01*
X76187086Y-83687969D01*
X76180272Y-83687600D01*
X75557715Y-83687600D01*
X75542476Y-83692075D01*
X75541271Y-83693465D01*
X75539600Y-83701148D01*
X75539600Y-85173485D01*
X75031600Y-85173485D01*
X75031600Y-83705716D01*
X75027125Y-83690477D01*
X75025735Y-83689272D01*
X75018052Y-83687601D01*
X74390931Y-83687601D01*
X74384110Y-83687971D01*
X74333248Y-83693495D01*
X74317996Y-83697121D01*
X74197546Y-83742276D01*
X74182671Y-83750420D01*
X74113313Y-83765589D01*
X74046765Y-83740853D01*
X74004155Y-83684065D01*
X73999010Y-83613255D01*
X74033066Y-83550805D01*
X74042351Y-83541520D01*
X74048553Y-83533245D01*
X74054940Y-83525400D01*
X74080060Y-83496957D01*
X74086001Y-83490230D01*
X74089814Y-83482108D01*
X74091654Y-83479307D01*
X74100063Y-83465312D01*
X74101685Y-83462349D01*
X74107070Y-83455164D01*
X74110224Y-83446752D01*
X74123546Y-83411218D01*
X74127471Y-83401902D01*
X74131105Y-83394161D01*
X74147417Y-83359418D01*
X74148799Y-83350544D01*
X74149785Y-83347317D01*
X74153925Y-83331534D01*
X74154646Y-83328256D01*
X74157798Y-83319848D01*
X74161276Y-83273043D01*
X74162430Y-83262996D01*
X74163751Y-83254514D01*
X74163751Y-83254511D01*
X74164500Y-83249703D01*
X74164500Y-83234338D01*
X74164846Y-83225001D01*
X74167842Y-83184681D01*
X74168507Y-83175733D01*
X74166634Y-83166958D01*
X74166041Y-83158262D01*
X74164500Y-83143662D01*
X74164500Y-80436230D01*
X74165842Y-80424222D01*
X74165346Y-80424182D01*
X74166066Y-80415231D01*
X74168047Y-80406477D01*
X74164742Y-80353207D01*
X74164500Y-80345405D01*
X74164500Y-80329374D01*
X74163035Y-80319141D01*
X74162004Y-80309081D01*
X74159654Y-80271201D01*
X74159654Y-80271200D01*
X74159098Y-80262242D01*
X74156050Y-80253799D01*
X74155371Y-80250520D01*
X74151416Y-80234655D01*
X74150473Y-80231431D01*
X74149201Y-80222548D01*
X74145487Y-80214379D01*
X74145485Y-80214373D01*
X74129775Y-80179821D01*
X74125961Y-80170452D01*
X74110028Y-80126316D01*
X74104731Y-80119066D01*
X74103154Y-80116099D01*
X74094907Y-80101986D01*
X74093102Y-80099163D01*
X74089388Y-80090995D01*
X74058753Y-80055442D01*
X74052475Y-80047536D01*
X74044527Y-80036656D01*
X74033665Y-80025794D01*
X74027307Y-80018947D01*
X74000915Y-79988318D01*
X73995056Y-79981518D01*
X73987521Y-79976634D01*
X73980949Y-79970901D01*
X73969545Y-79961674D01*
X73457077Y-79449206D01*
X73449535Y-79439766D01*
X73449155Y-79440089D01*
X73443337Y-79433253D01*
X73438547Y-79425661D01*
X73398540Y-79390328D01*
X73392854Y-79384983D01*
X73381520Y-79373649D01*
X73373245Y-79367447D01*
X73365400Y-79361060D01*
X73336957Y-79335940D01*
X73330230Y-79329999D01*
X73322108Y-79326186D01*
X73319307Y-79324346D01*
X73305312Y-79315937D01*
X73302349Y-79314315D01*
X73295164Y-79308930D01*
X73286754Y-79305777D01*
X73286752Y-79305776D01*
X73251218Y-79292454D01*
X73241902Y-79288529D01*
X73199418Y-79268583D01*
X73190544Y-79267201D01*
X73187317Y-79266215D01*
X73171534Y-79262075D01*
X73168256Y-79261354D01*
X73159848Y-79258202D01*
X73146091Y-79257180D01*
X73113043Y-79254724D01*
X73102996Y-79253570D01*
X73094514Y-79252249D01*
X73094511Y-79252249D01*
X73089703Y-79251500D01*
X73074338Y-79251500D01*
X73065001Y-79251154D01*
X73048919Y-79249959D01*
X73015733Y-79247493D01*
X73006958Y-79249366D01*
X72998262Y-79249959D01*
X72983662Y-79251500D01*
X72652899Y-79251500D01*
X72584778Y-79231498D01*
X72538285Y-79177842D01*
X72526899Y-79125500D01*
X72526899Y-78880934D01*
X72512134Y-78806699D01*
X72455884Y-78722516D01*
X72371701Y-78666266D01*
X72297467Y-78651500D01*
X72147384Y-78651500D01*
X70933562Y-78651501D01*
X70865441Y-78631499D01*
X70844467Y-78614596D01*
X70137405Y-77907534D01*
X70103379Y-77845222D01*
X70100500Y-77818439D01*
X70100500Y-77088000D01*
X70120502Y-77019879D01*
X70174158Y-76973386D01*
X70226500Y-76962000D01*
X72288400Y-76962000D01*
X72288400Y-75480186D01*
X74341018Y-75480186D01*
X74366579Y-75748100D01*
X74367664Y-75752534D01*
X74367665Y-75752540D01*
X74395830Y-75867640D01*
X74430547Y-76009518D01*
X74531583Y-76258963D01*
X74667569Y-76491210D01*
X74835658Y-76701395D01*
X75032327Y-76885113D01*
X75253457Y-77038516D01*
X75494416Y-77158391D01*
X75498750Y-77159812D01*
X75498753Y-77159813D01*
X75745823Y-77240807D01*
X75745829Y-77240808D01*
X75750156Y-77242227D01*
X75754647Y-77243007D01*
X75754648Y-77243007D01*
X76011538Y-77287611D01*
X76011546Y-77287612D01*
X76015319Y-77288267D01*
X76019156Y-77288458D01*
X76098777Y-77292422D01*
X76098785Y-77292422D01*
X76100348Y-77292500D01*
X76268374Y-77292500D01*
X76270642Y-77292335D01*
X76270654Y-77292335D01*
X76401457Y-77282844D01*
X76468425Y-77277985D01*
X76472880Y-77277001D01*
X76472883Y-77277001D01*
X76726770Y-77220947D01*
X76726772Y-77220946D01*
X76731226Y-77219963D01*
X76982900Y-77124613D01*
X77218172Y-76993931D01*
X77382526Y-76868500D01*
X77428491Y-76833421D01*
X77428495Y-76833417D01*
X77432116Y-76830654D01*
X77620249Y-76638203D01*
X77727242Y-76491210D01*
X77775942Y-76424304D01*
X77775947Y-76424297D01*
X77778630Y-76420610D01*
X77903941Y-76182433D01*
X77993557Y-75928662D01*
X78024766Y-75770318D01*
X78044720Y-75669083D01*
X78044721Y-75669077D01*
X78045601Y-75664611D01*
X78054782Y-75480186D01*
X78058755Y-75400383D01*
X78058755Y-75400377D01*
X78058982Y-75395814D01*
X78033421Y-75127900D01*
X78027407Y-75103319D01*
X77970539Y-74870920D01*
X77969453Y-74866482D01*
X77868417Y-74617037D01*
X77732431Y-74384790D01*
X77564342Y-74174605D01*
X77367673Y-73990887D01*
X77146543Y-73837484D01*
X76905584Y-73717609D01*
X76901250Y-73716188D01*
X76901247Y-73716187D01*
X76654177Y-73635193D01*
X76654171Y-73635192D01*
X76649844Y-73633773D01*
X76645352Y-73632993D01*
X76388462Y-73588389D01*
X76388454Y-73588388D01*
X76384681Y-73587733D01*
X76374718Y-73587237D01*
X76301223Y-73583578D01*
X76301215Y-73583578D01*
X76299652Y-73583500D01*
X76131626Y-73583500D01*
X76129358Y-73583665D01*
X76129346Y-73583665D01*
X75998543Y-73593156D01*
X75931575Y-73598015D01*
X75927120Y-73598999D01*
X75927117Y-73598999D01*
X75673230Y-73655053D01*
X75673228Y-73655054D01*
X75668774Y-73656037D01*
X75417100Y-73751387D01*
X75181828Y-73882069D01*
X75164628Y-73895196D01*
X74971509Y-74042579D01*
X74971505Y-74042583D01*
X74967884Y-74045346D01*
X74779751Y-74237797D01*
X74777066Y-74241486D01*
X74624058Y-74451696D01*
X74624053Y-74451703D01*
X74621370Y-74455390D01*
X74496059Y-74693567D01*
X74406443Y-74947338D01*
X74405084Y-74954234D01*
X74364035Y-75162502D01*
X74354399Y-75211389D01*
X74354172Y-75215942D01*
X74354172Y-75215945D01*
X74344991Y-75400383D01*
X74341018Y-75480186D01*
X72288400Y-75480186D01*
X72288400Y-74015600D01*
X72258500Y-74015600D01*
X72190379Y-73995598D01*
X72143886Y-73941942D01*
X72132500Y-73889600D01*
X72132500Y-72604499D01*
X72152502Y-72536378D01*
X72206158Y-72489885D01*
X72258500Y-72478499D01*
X72653066Y-72478499D01*
X72688818Y-72471388D01*
X72715126Y-72466156D01*
X72715128Y-72466155D01*
X72727301Y-72463734D01*
X72737621Y-72456839D01*
X72737622Y-72456838D01*
X72801168Y-72414377D01*
X72811484Y-72407484D01*
X72867734Y-72323301D01*
X72882500Y-72249067D01*
X72882500Y-72004500D01*
X72902502Y-71936379D01*
X72956158Y-71889886D01*
X73008500Y-71878500D01*
X78580439Y-71878500D01*
X78648560Y-71898502D01*
X78669534Y-71915405D01*
X79925795Y-73171665D01*
X79959820Y-73233977D01*
X79962700Y-73260760D01*
X79962700Y-87826039D01*
X79942698Y-87894160D01*
X79925795Y-87915134D01*
X77856734Y-89984195D01*
X77794422Y-90018221D01*
X77767639Y-90021100D01*
X75901835Y-90021100D01*
X75833714Y-90001098D01*
X75787221Y-89947442D01*
X75777117Y-89877168D01*
X75806611Y-89812588D01*
X75846403Y-89781949D01*
X75978693Y-89717141D01*
X75987544Y-89711865D01*
X76034847Y-89678123D01*
X76043248Y-89667423D01*
X76036260Y-89654270D01*
X75298412Y-88916422D01*
X75284468Y-88908808D01*
X75282635Y-88908939D01*
X75276020Y-88913190D01*
X74532337Y-89656873D01*
X74525577Y-89669253D01*
X74530858Y-89676307D01*
X74692356Y-89770679D01*
X74701649Y-89775132D01*
X74707565Y-89777391D01*
X74764068Y-89820378D01*
X74788360Y-89887090D01*
X74772729Y-89956344D01*
X74722138Y-90006154D01*
X74662615Y-90021100D01*
X68942761Y-90021100D01*
X68874640Y-90001098D01*
X68853666Y-89984195D01*
X68410173Y-89540702D01*
X68376147Y-89478390D01*
X68381212Y-89407575D01*
X68418698Y-89354733D01*
X68445513Y-89332431D01*
X68449945Y-89328745D01*
X68507063Y-89260069D01*
X68576053Y-89177118D01*
X68576055Y-89177115D01*
X68579747Y-89172676D01*
X68678934Y-88995565D01*
X68680790Y-88990098D01*
X68680792Y-88990093D01*
X68742328Y-88808814D01*
X68742329Y-88808809D01*
X68744184Y-88803345D01*
X68745012Y-88797636D01*
X68745013Y-88797631D01*
X68772779Y-88606127D01*
X68773312Y-88602453D01*
X68774832Y-88544400D01*
X68758534Y-88367030D01*
X68756787Y-88348013D01*
X68756786Y-88348010D01*
X68756258Y-88342259D01*
X68750984Y-88323559D01*
X68702725Y-88152446D01*
X68702724Y-88152444D01*
X68701157Y-88146887D01*
X68697667Y-88139808D01*
X68633094Y-88008868D01*
X68620100Y-87953140D01*
X68620100Y-86999208D01*
X68640102Y-86931087D01*
X68676095Y-86894445D01*
X68699084Y-86879084D01*
X68755334Y-86794901D01*
X68770100Y-86720667D01*
X68770099Y-84170534D01*
X68762988Y-84134782D01*
X68757756Y-84108474D01*
X68757755Y-84108472D01*
X68755334Y-84096299D01*
X68721547Y-84045733D01*
X68705977Y-84022432D01*
X68699084Y-84012116D01*
X68614901Y-83955866D01*
X68540667Y-83941100D01*
X67665742Y-83941100D01*
X66790534Y-83941101D01*
X66754782Y-83948212D01*
X66728474Y-83953444D01*
X66728472Y-83953445D01*
X66716299Y-83955866D01*
X66705979Y-83962761D01*
X66705978Y-83962762D01*
X66651359Y-83999258D01*
X66632116Y-84012116D01*
X66575866Y-84096299D01*
X66561100Y-84170533D01*
X66561101Y-86720666D01*
X66575866Y-86794901D01*
X66632116Y-86879084D01*
X66655104Y-86894444D01*
X66700630Y-86948921D01*
X66711100Y-86999208D01*
X66711100Y-87955180D01*
X66696608Y-88013847D01*
X66640803Y-88119915D01*
X66580607Y-88313778D01*
X66556748Y-88515364D01*
X66570024Y-88717922D01*
X66571445Y-88723518D01*
X66571446Y-88723523D01*
X66591719Y-88803345D01*
X66619992Y-88914669D01*
X66622409Y-88919912D01*
X66659610Y-89000608D01*
X66704977Y-89099016D01*
X66708310Y-89103732D01*
X66805731Y-89241580D01*
X66822133Y-89264789D01*
X66967538Y-89406435D01*
X66972342Y-89409645D01*
X67109848Y-89501524D01*
X67155376Y-89556001D01*
X67165604Y-89598486D01*
X67166502Y-89612959D01*
X67215572Y-89748884D01*
X67220865Y-89756129D01*
X67220867Y-89756133D01*
X67262111Y-89812588D01*
X67281073Y-89838544D01*
X68274923Y-90832394D01*
X68282465Y-90841834D01*
X68282845Y-90841511D01*
X68288663Y-90848347D01*
X68293453Y-90855939D01*
X68300181Y-90861881D01*
X68333459Y-90891271D01*
X68339146Y-90896617D01*
X68350480Y-90907951D01*
X68354063Y-90910636D01*
X68354065Y-90910638D01*
X68358755Y-90914153D01*
X68366598Y-90920538D01*
X68401770Y-90951601D01*
X68409892Y-90955414D01*
X68412693Y-90957254D01*
X68426688Y-90965663D01*
X68429651Y-90967285D01*
X68436836Y-90972670D01*
X68445246Y-90975823D01*
X68445248Y-90975824D01*
X68480782Y-90989146D01*
X68490095Y-90993070D01*
X68532582Y-91013017D01*
X68541456Y-91014399D01*
X68544683Y-91015385D01*
X68560466Y-91019525D01*
X68563744Y-91020246D01*
X68572152Y-91023398D01*
X68585909Y-91024420D01*
X68618957Y-91026876D01*
X68629004Y-91028030D01*
X68637486Y-91029351D01*
X68637489Y-91029351D01*
X68642297Y-91030100D01*
X68657662Y-91030100D01*
X68667000Y-91030446D01*
X68716267Y-91034107D01*
X68725042Y-91032234D01*
X68733738Y-91031641D01*
X68748338Y-91030100D01*
X77958176Y-91030100D01*
X77970181Y-91031441D01*
X77970221Y-91030945D01*
X77979168Y-91031665D01*
X77987924Y-91033646D01*
X78041182Y-91030342D01*
X78048984Y-91030100D01*
X78065026Y-91030100D01*
X78069457Y-91029465D01*
X78069462Y-91029465D01*
X78073487Y-91028888D01*
X78075257Y-91028635D01*
X78085314Y-91027604D01*
X78107776Y-91026211D01*
X78123200Y-91025254D01*
X78123202Y-91025254D01*
X78132159Y-91024698D01*
X78140599Y-91021651D01*
X78143889Y-91020970D01*
X78159738Y-91017018D01*
X78162968Y-91016073D01*
X78171852Y-91014801D01*
X78214563Y-90995382D01*
X78223928Y-90991570D01*
X78259637Y-90978678D01*
X78259640Y-90978676D01*
X78268084Y-90975628D01*
X78275333Y-90970332D01*
X78278290Y-90968760D01*
X78292414Y-90960507D01*
X78295237Y-90958702D01*
X78303405Y-90954988D01*
X78310202Y-90949131D01*
X78310204Y-90949130D01*
X78338953Y-90924357D01*
X78346864Y-90918075D01*
X78357744Y-90910127D01*
X78368606Y-90899265D01*
X78375453Y-90892907D01*
X78406082Y-90866515D01*
X78412882Y-90860656D01*
X78417766Y-90853121D01*
X78423499Y-90846549D01*
X78432726Y-90835145D01*
X80773994Y-88493877D01*
X80783434Y-88486335D01*
X80783111Y-88485955D01*
X80789947Y-88480137D01*
X80797539Y-88475347D01*
X80832872Y-88435340D01*
X80838217Y-88429654D01*
X80849551Y-88418320D01*
X80852238Y-88414734D01*
X80852243Y-88414729D01*
X80855757Y-88410041D01*
X80862138Y-88402203D01*
X80887260Y-88373757D01*
X80893201Y-88367030D01*
X80897015Y-88358907D01*
X80898861Y-88356096D01*
X80907272Y-88342097D01*
X80908886Y-88339148D01*
X80914270Y-88331965D01*
X80930742Y-88288026D01*
X80934669Y-88278706D01*
X80950802Y-88244344D01*
X80950802Y-88244343D01*
X80954617Y-88236218D01*
X80955998Y-88227347D01*
X80956983Y-88224125D01*
X80961120Y-88208354D01*
X80961844Y-88205060D01*
X80964998Y-88196648D01*
X80968476Y-88149850D01*
X80969626Y-88139826D01*
X80971700Y-88126503D01*
X80971700Y-88111138D01*
X80972046Y-88101801D01*
X80975042Y-88061482D01*
X80975707Y-88052534D01*
X80973834Y-88043759D01*
X80973241Y-88035063D01*
X80971700Y-88020463D01*
X80971700Y-73070230D01*
X80973042Y-73058222D01*
X80972546Y-73058182D01*
X80973266Y-73049231D01*
X80975247Y-73040477D01*
X80971942Y-72987207D01*
X80971700Y-72979405D01*
X80971700Y-72963374D01*
X80970235Y-72953141D01*
X80969204Y-72943081D01*
X80966854Y-72905201D01*
X80966854Y-72905200D01*
X80966298Y-72896242D01*
X80963250Y-72887799D01*
X80962571Y-72884520D01*
X80958616Y-72868655D01*
X80957673Y-72865431D01*
X80956401Y-72856548D01*
X80952687Y-72848379D01*
X80952685Y-72848373D01*
X80936975Y-72813821D01*
X80933161Y-72804452D01*
X80920277Y-72768763D01*
X80917228Y-72760316D01*
X80911931Y-72753066D01*
X80910354Y-72750099D01*
X80902107Y-72735986D01*
X80900302Y-72733163D01*
X80896588Y-72724995D01*
X80865953Y-72689442D01*
X80859675Y-72681536D01*
X80851727Y-72670656D01*
X80840865Y-72659794D01*
X80834507Y-72652947D01*
X80808115Y-72622318D01*
X80802256Y-72615518D01*
X80794721Y-72610634D01*
X80788149Y-72604901D01*
X80776745Y-72595674D01*
X79248277Y-71067206D01*
X79240735Y-71057766D01*
X79240355Y-71058089D01*
X79234537Y-71051253D01*
X79229747Y-71043661D01*
X79189740Y-71008328D01*
X79184054Y-71002983D01*
X79172720Y-70991649D01*
X79164445Y-70985447D01*
X79156600Y-70979060D01*
X79128157Y-70953940D01*
X79121430Y-70947999D01*
X79113308Y-70944186D01*
X79110507Y-70942346D01*
X79096512Y-70933937D01*
X79093549Y-70932315D01*
X79086364Y-70926930D01*
X79077954Y-70923777D01*
X79077952Y-70923776D01*
X79042418Y-70910454D01*
X79033102Y-70906529D01*
X78990618Y-70886583D01*
X78981744Y-70885201D01*
X78978517Y-70884215D01*
X78962734Y-70880075D01*
X78959456Y-70879354D01*
X78951048Y-70876202D01*
X78937291Y-70875180D01*
X78904243Y-70872724D01*
X78894196Y-70871570D01*
X78885714Y-70870249D01*
X78885711Y-70870249D01*
X78880903Y-70869500D01*
X78865538Y-70869500D01*
X78856201Y-70869154D01*
X78840119Y-70867959D01*
X78806933Y-70865493D01*
X78798158Y-70867366D01*
X78789462Y-70867959D01*
X78774862Y-70869500D01*
X73008499Y-70869500D01*
X72940378Y-70849498D01*
X72893885Y-70795842D01*
X72882499Y-70743500D01*
X72882499Y-70498934D01*
X72872710Y-70449718D01*
X72870156Y-70436874D01*
X72870155Y-70436872D01*
X72867734Y-70424699D01*
X72857265Y-70409030D01*
X72818377Y-70350832D01*
X72811484Y-70340516D01*
X72727301Y-70284266D01*
X72653067Y-70269500D01*
X71628166Y-70269500D01*
X70602934Y-70269501D01*
X70567182Y-70276612D01*
X70540874Y-70281844D01*
X70540872Y-70281845D01*
X70528699Y-70284266D01*
X70518379Y-70291161D01*
X70518378Y-70291162D01*
X70457985Y-70331516D01*
X70444516Y-70340516D01*
X70388266Y-70424699D01*
X70373500Y-70498933D01*
X70373501Y-72249066D01*
X70388266Y-72323301D01*
X70444516Y-72407484D01*
X70454832Y-72414377D01*
X70514880Y-72454500D01*
X70528699Y-72463734D01*
X70602933Y-72478500D01*
X70997500Y-72478500D01*
X71065621Y-72498502D01*
X71112114Y-72552158D01*
X71123500Y-72604500D01*
X71123500Y-73889600D01*
X71103498Y-73957721D01*
X71049842Y-74004214D01*
X70997500Y-74015600D01*
X70957926Y-74015600D01*
X70893787Y-73998053D01*
X70781221Y-73931482D01*
X70766780Y-73925232D01*
X70663395Y-73895196D01*
X70649295Y-73895236D01*
X70636085Y-73924381D01*
X70621013Y-73964966D01*
X70564238Y-74007593D01*
X70520038Y-74015600D01*
X70271841Y-74015600D01*
X70203720Y-73995598D01*
X70157227Y-73941942D01*
X70150945Y-73925098D01*
X70142027Y-73894726D01*
X70134129Y-73893591D01*
X70031153Y-73923508D01*
X69960847Y-73923508D01*
X69863395Y-73895196D01*
X69849295Y-73895236D01*
X69836085Y-73924381D01*
X69821013Y-73964966D01*
X69764238Y-74007593D01*
X69720038Y-74015600D01*
X69471841Y-74015600D01*
X69403720Y-73995598D01*
X69357227Y-73941942D01*
X69350945Y-73925098D01*
X69342027Y-73894726D01*
X69334129Y-73893591D01*
X69231153Y-73923508D01*
X69160847Y-73923508D01*
X69063395Y-73895196D01*
X69049295Y-73895236D01*
X69036085Y-73924381D01*
X69021013Y-73964966D01*
X68964238Y-74007593D01*
X68920038Y-74015600D01*
X68671841Y-74015600D01*
X68603720Y-73995598D01*
X68557227Y-73941942D01*
X68550945Y-73925098D01*
X68542027Y-73894726D01*
X68534129Y-73893591D01*
X68425220Y-73925232D01*
X68410779Y-73931482D01*
X68298213Y-73998053D01*
X68234074Y-74015600D01*
X66954400Y-74015600D01*
X66954400Y-74029148D01*
X66953283Y-74034283D01*
X66919258Y-74096595D01*
X66856946Y-74130620D01*
X66830162Y-74133500D01*
X66771161Y-74133500D01*
X66703040Y-74113498D01*
X66682066Y-74096595D01*
X65684677Y-73099206D01*
X65677135Y-73089766D01*
X65676755Y-73090089D01*
X65670937Y-73083253D01*
X65666147Y-73075661D01*
X65659419Y-73069719D01*
X65653601Y-73062883D01*
X65655650Y-73061139D01*
X65625273Y-73012876D01*
X65620499Y-72978521D01*
X65620499Y-72454500D01*
X65640501Y-72386379D01*
X65694157Y-72339886D01*
X65746499Y-72328500D01*
X66324392Y-72328500D01*
X66392513Y-72348502D01*
X66429155Y-72384495D01*
X66444516Y-72407484D01*
X66454832Y-72414377D01*
X66514880Y-72454500D01*
X66528699Y-72463734D01*
X66602933Y-72478500D01*
X67627834Y-72478500D01*
X68653066Y-72478499D01*
X68688818Y-72471388D01*
X68715126Y-72466156D01*
X68715128Y-72466155D01*
X68727301Y-72463734D01*
X68737621Y-72456839D01*
X68737622Y-72456838D01*
X68801168Y-72414377D01*
X68811484Y-72407484D01*
X68867734Y-72323301D01*
X68882500Y-72249067D01*
X68882499Y-70498934D01*
X68872710Y-70449718D01*
X68870156Y-70436874D01*
X68870155Y-70436872D01*
X68867734Y-70424699D01*
X68857265Y-70409030D01*
X68818377Y-70350832D01*
X68811484Y-70340516D01*
X68727301Y-70284266D01*
X68653067Y-70269500D01*
X67628166Y-70269500D01*
X66602934Y-70269501D01*
X66567182Y-70276612D01*
X66540874Y-70281844D01*
X66540872Y-70281845D01*
X66528699Y-70284266D01*
X66518379Y-70291161D01*
X66518378Y-70291162D01*
X66457985Y-70331516D01*
X66444516Y-70340516D01*
X66429156Y-70363504D01*
X66374679Y-70409030D01*
X66324392Y-70419500D01*
X65141091Y-70419500D01*
X65137573Y-70419451D01*
X65061717Y-70417332D01*
X65061714Y-70417332D01*
X65055334Y-70417154D01*
X64998862Y-70427111D01*
X64989722Y-70428380D01*
X64932681Y-70434174D01*
X64926592Y-70436082D01*
X64926588Y-70436083D01*
X64906840Y-70442272D01*
X64891039Y-70446124D01*
X64870655Y-70449718D01*
X64870652Y-70449719D01*
X64864368Y-70450827D01*
X64858436Y-70453175D01*
X64858431Y-70453177D01*
X64811059Y-70471933D01*
X64802356Y-70475015D01*
X64747643Y-70492161D01*
X64742060Y-70495255D01*
X64742059Y-70495256D01*
X64723950Y-70505294D01*
X64709259Y-70512238D01*
X64684074Y-70522210D01*
X64678735Y-70525704D01*
X64636106Y-70553599D01*
X64628202Y-70558367D01*
X64583631Y-70583074D01*
X64583627Y-70583077D01*
X64578045Y-70586171D01*
X64573199Y-70590324D01*
X64573197Y-70590326D01*
X64557482Y-70603796D01*
X64544476Y-70613561D01*
X64525869Y-70625737D01*
X64525865Y-70625740D01*
X64521817Y-70628389D01*
X64517074Y-70632659D01*
X64480118Y-70669615D01*
X64473021Y-70676188D01*
X64430814Y-70712364D01*
X64412999Y-70735330D01*
X64402541Y-70747192D01*
X63852008Y-71297725D01*
X63849487Y-71300177D01*
X63789722Y-71356694D01*
X63786058Y-71361927D01*
X63786056Y-71361929D01*
X63756832Y-71403665D01*
X63751280Y-71411007D01*
X63715028Y-71455457D01*
X63712071Y-71461114D01*
X63712070Y-71461115D01*
X63702482Y-71479456D01*
X63694039Y-71493343D01*
X63678499Y-71515537D01*
X63675964Y-71521395D01*
X63655732Y-71568149D01*
X63651758Y-71576481D01*
X63625190Y-71627302D01*
X63623431Y-71633438D01*
X63617725Y-71653336D01*
X63612245Y-71668643D01*
X63601488Y-71693500D01*
X63600183Y-71699747D01*
X63589764Y-71749618D01*
X63587546Y-71758580D01*
X63571741Y-71813701D01*
X63571252Y-71820061D01*
X63569663Y-71840709D01*
X63567373Y-71856799D01*
X63561834Y-71883313D01*
X63561580Y-71888156D01*
X63560958Y-71892947D01*
X63559589Y-71892769D01*
X63538107Y-71953899D01*
X63482093Y-71997522D01*
X63411387Y-72003936D01*
X63360253Y-71981153D01*
X63333648Y-71961214D01*
X63318054Y-71952676D01*
X63197606Y-71907522D01*
X63182351Y-71903895D01*
X63131486Y-71898369D01*
X63124672Y-71898000D01*
X62502115Y-71898000D01*
X62486876Y-71902475D01*
X62485671Y-71903865D01*
X62484000Y-71911548D01*
X62484000Y-74895884D01*
X62488475Y-74911123D01*
X62489865Y-74912328D01*
X62497548Y-74913999D01*
X63124669Y-74913999D01*
X63131490Y-74913629D01*
X63182352Y-74908105D01*
X63197604Y-74904479D01*
X63318054Y-74859324D01*
X63333649Y-74850786D01*
X63435724Y-74774285D01*
X63448284Y-74761725D01*
X63491712Y-74703778D01*
X63548571Y-74661262D01*
X63617119Y-74655763D01*
X63640933Y-74660500D01*
X64515858Y-74660500D01*
X65391066Y-74660499D01*
X65426818Y-74653388D01*
X65453126Y-74648156D01*
X65453128Y-74648155D01*
X65465301Y-74645734D01*
X65475621Y-74638839D01*
X65475622Y-74638838D01*
X65539168Y-74596377D01*
X65549484Y-74589484D01*
X65556377Y-74579168D01*
X65557942Y-74577603D01*
X65620254Y-74543577D01*
X65691069Y-74548642D01*
X65736132Y-74577603D01*
X66103323Y-74944794D01*
X66110865Y-74954234D01*
X66111245Y-74953911D01*
X66117063Y-74960747D01*
X66121853Y-74968339D01*
X66128581Y-74974281D01*
X66161859Y-75003671D01*
X66167546Y-75009017D01*
X66178880Y-75020351D01*
X66182463Y-75023036D01*
X66182465Y-75023038D01*
X66187155Y-75026553D01*
X66194998Y-75032938D01*
X66230170Y-75064001D01*
X66238292Y-75067814D01*
X66241093Y-75069654D01*
X66255088Y-75078063D01*
X66258051Y-75079685D01*
X66265236Y-75085070D01*
X66273646Y-75088223D01*
X66273648Y-75088224D01*
X66309182Y-75101546D01*
X66318495Y-75105470D01*
X66360982Y-75125417D01*
X66369856Y-75126799D01*
X66373083Y-75127785D01*
X66388866Y-75131925D01*
X66392144Y-75132646D01*
X66400552Y-75135798D01*
X66414309Y-75136820D01*
X66447357Y-75139276D01*
X66457404Y-75140430D01*
X66465886Y-75141751D01*
X66465889Y-75141751D01*
X66470697Y-75142500D01*
X66486062Y-75142500D01*
X66495400Y-75142846D01*
X66544667Y-75146507D01*
X66553442Y-75144634D01*
X66562138Y-75144041D01*
X66576738Y-75142500D01*
X66828400Y-75142500D01*
X66896521Y-75162502D01*
X66943014Y-75216158D01*
X66954400Y-75268500D01*
X66954400Y-75607500D01*
X66934398Y-75675621D01*
X66880742Y-75722114D01*
X66828400Y-75733500D01*
X66580624Y-75733500D01*
X66568619Y-75732159D01*
X66568579Y-75732655D01*
X66559632Y-75731935D01*
X66550876Y-75729954D01*
X66507338Y-75732655D01*
X66497618Y-75733258D01*
X66489816Y-75733500D01*
X66473774Y-75733500D01*
X66469343Y-75734135D01*
X66469338Y-75734135D01*
X66465313Y-75734712D01*
X66463543Y-75734965D01*
X66453486Y-75735996D01*
X66431024Y-75737389D01*
X66415600Y-75738346D01*
X66415598Y-75738346D01*
X66406641Y-75738902D01*
X66398201Y-75741949D01*
X66394911Y-75742630D01*
X66379054Y-75746584D01*
X66375829Y-75747527D01*
X66366948Y-75748799D01*
X66358783Y-75752512D01*
X66358781Y-75752512D01*
X66324218Y-75768227D01*
X66314875Y-75772031D01*
X66270715Y-75787973D01*
X66263467Y-75793268D01*
X66260486Y-75794853D01*
X66246387Y-75803093D01*
X66243567Y-75804897D01*
X66235395Y-75808612D01*
X66228597Y-75814469D01*
X66228596Y-75814470D01*
X66199838Y-75839249D01*
X66191926Y-75845531D01*
X66184993Y-75850596D01*
X66184980Y-75850607D01*
X66181056Y-75853474D01*
X66170202Y-75864328D01*
X66163355Y-75870686D01*
X66132718Y-75897084D01*
X66132716Y-75897087D01*
X66125918Y-75902944D01*
X66121036Y-75910477D01*
X66115306Y-75917045D01*
X66106072Y-75928458D01*
X65763202Y-76271328D01*
X65700890Y-76305354D01*
X65630075Y-76300289D01*
X65569343Y-76252237D01*
X65549484Y-76222516D01*
X65465301Y-76166266D01*
X65391067Y-76151500D01*
X64516142Y-76151500D01*
X63640934Y-76151501D01*
X63605182Y-76158612D01*
X63578874Y-76163844D01*
X63578872Y-76163845D01*
X63566699Y-76166266D01*
X63556379Y-76173161D01*
X63556378Y-76173162D01*
X63536451Y-76186477D01*
X63482516Y-76222516D01*
X63475623Y-76232832D01*
X63466846Y-76241609D01*
X63465289Y-76240052D01*
X63423285Y-76275155D01*
X63352842Y-76284001D01*
X63288799Y-76253358D01*
X63275143Y-76237598D01*
X63270377Y-76232832D01*
X63263484Y-76222516D01*
X63179301Y-76166266D01*
X63105067Y-76151500D01*
X62230142Y-76151500D01*
X61354934Y-76151501D01*
X61319182Y-76158612D01*
X61292874Y-76163844D01*
X61292872Y-76163845D01*
X61280699Y-76166266D01*
X61270379Y-76173161D01*
X61270378Y-76173162D01*
X61250451Y-76186477D01*
X61196516Y-76222516D01*
X61189623Y-76232832D01*
X61180846Y-76241609D01*
X61179289Y-76240052D01*
X61137285Y-76275155D01*
X61066842Y-76284001D01*
X61002799Y-76253358D01*
X60989143Y-76237598D01*
X60984377Y-76232832D01*
X60977484Y-76222516D01*
X60893301Y-76166266D01*
X60819067Y-76151500D01*
X59944142Y-76151500D01*
X59068934Y-76151501D01*
X59033182Y-76158612D01*
X59006874Y-76163844D01*
X59006872Y-76163845D01*
X58994699Y-76166266D01*
X58984379Y-76173161D01*
X58984378Y-76173162D01*
X58964451Y-76186477D01*
X58910516Y-76222516D01*
X58903623Y-76232832D01*
X58869433Y-76284001D01*
X58854266Y-76306699D01*
X58839500Y-76380933D01*
X57404000Y-76380933D01*
X57404000Y-74450669D01*
X58586001Y-74450669D01*
X58586371Y-74457490D01*
X58591895Y-74508352D01*
X58595521Y-74523604D01*
X58640676Y-74644054D01*
X58649214Y-74659649D01*
X58725715Y-74761724D01*
X58738276Y-74774285D01*
X58840351Y-74850786D01*
X58855946Y-74859324D01*
X58976394Y-74904478D01*
X58991649Y-74908105D01*
X59042514Y-74913631D01*
X59049328Y-74914000D01*
X59671885Y-74914000D01*
X59687124Y-74909525D01*
X59688329Y-74908135D01*
X59690000Y-74900452D01*
X59690000Y-74895884D01*
X60198000Y-74895884D01*
X60202475Y-74911123D01*
X60203865Y-74912328D01*
X60211548Y-74913999D01*
X60838669Y-74913999D01*
X60845490Y-74913629D01*
X60896352Y-74908105D01*
X60911604Y-74904479D01*
X61040462Y-74856172D01*
X61041552Y-74859079D01*
X61095832Y-74847200D01*
X61132829Y-74858063D01*
X61133538Y-74856172D01*
X61262394Y-74904478D01*
X61277649Y-74908105D01*
X61328514Y-74913631D01*
X61335328Y-74914000D01*
X61957885Y-74914000D01*
X61973124Y-74909525D01*
X61974329Y-74908135D01*
X61976000Y-74900452D01*
X61976000Y-73678115D01*
X61971525Y-73662876D01*
X61970135Y-73661671D01*
X61962452Y-73660000D01*
X60216115Y-73660000D01*
X60200876Y-73664475D01*
X60199671Y-73665865D01*
X60198000Y-73673548D01*
X60198000Y-74895884D01*
X59690000Y-74895884D01*
X59690000Y-73678115D01*
X59685525Y-73662876D01*
X59684135Y-73661671D01*
X59676452Y-73660000D01*
X58604116Y-73660000D01*
X58588877Y-73664475D01*
X58587672Y-73665865D01*
X58586001Y-73673548D01*
X58586001Y-74450669D01*
X57404000Y-74450669D01*
X57404000Y-73133885D01*
X58586000Y-73133885D01*
X58590475Y-73149124D01*
X58591865Y-73150329D01*
X58599548Y-73152000D01*
X59671885Y-73152000D01*
X59687124Y-73147525D01*
X59688329Y-73146135D01*
X59690000Y-73138452D01*
X59690000Y-73133885D01*
X60198000Y-73133885D01*
X60202475Y-73149124D01*
X60203865Y-73150329D01*
X60211548Y-73152000D01*
X61957885Y-73152000D01*
X61973124Y-73147525D01*
X61974329Y-73146135D01*
X61976000Y-73138452D01*
X61976000Y-71916116D01*
X61971525Y-71900877D01*
X61970135Y-71899672D01*
X61962452Y-71898001D01*
X61335331Y-71898001D01*
X61328510Y-71898371D01*
X61277648Y-71903895D01*
X61262396Y-71907521D01*
X61133538Y-71955828D01*
X61132448Y-71952921D01*
X61078168Y-71964800D01*
X61041171Y-71953937D01*
X61040462Y-71955828D01*
X60911606Y-71907522D01*
X60896351Y-71903895D01*
X60845486Y-71898369D01*
X60838672Y-71898000D01*
X60216115Y-71898000D01*
X60200876Y-71902475D01*
X60199671Y-71903865D01*
X60198000Y-71911548D01*
X60198000Y-73133885D01*
X59690000Y-73133885D01*
X59690000Y-71916116D01*
X59685525Y-71900877D01*
X59684135Y-71899672D01*
X59676452Y-71898001D01*
X59049331Y-71898001D01*
X59042510Y-71898371D01*
X58991648Y-71903895D01*
X58976396Y-71907521D01*
X58855946Y-71952676D01*
X58840351Y-71961214D01*
X58738276Y-72037715D01*
X58725715Y-72050276D01*
X58649214Y-72152351D01*
X58640676Y-72167946D01*
X58595522Y-72288394D01*
X58591895Y-72303649D01*
X58586369Y-72354514D01*
X58586000Y-72361328D01*
X58586000Y-73133885D01*
X57404000Y-73133885D01*
X57404000Y-68960000D01*
X57424002Y-68891879D01*
X57477658Y-68845386D01*
X57530000Y-68834000D01*
X82170000Y-68834000D01*
X82238121Y-68854002D01*
G37*
%TD.AperFunction*%
%TD*%
M02*
