<?xml version="1.0" encoding="UTF-8" standalone="no"?>
<svg
   version="1.1"
   width="5cm"
   height="5.0000005cm"
   viewBox="0 0 49999999 50000006"
   id="svg156"
   sodipodi:docname="laser2.svg"
   inkscape:version="1.1.1 (3bf5ae0d25, 2021-09-20)"
   xmlns:inkscape="http://www.inkscape.org/namespaces/inkscape"
   xmlns:sodipodi="http://sodipodi.sourceforge.net/DTD/sodipodi-0.dtd"
   xmlns="http://www.w3.org/2000/svg"
   xmlns:svg="http://www.w3.org/2000/svg"
   xmlns:rdf="http://www.w3.org/1999/02/22-rdf-syntax-ns#"
   xmlns:cc="http://creativecommons.org/ns#"
   xmlns:dc="http://purl.org/dc/elements/1.1/">
  <defs
     id="defs160" />
  <sodipodi:namedview
     id="namedview158"
     pagecolor="#ffffff"
     bordercolor="#666666"
     borderopacity="1.0"
     inkscape:pageshadow="2"
     inkscape:pageopacity="0.0"
     inkscape:pagecheckerboard="0"
     inkscape:document-units="cm"
     showgrid="false"
     inkscape:zoom="3.2259682"
     inkscape:cx="67.421619"
     inkscape:cy="94.700251"
     inkscape:window-width="1920"
     inkscape:window-height="1001"
     inkscape:window-x="-9"
     inkscape:window-y="-9"
     inkscape:window-maximized="1"
     inkscape:current-layer="svg156" />
  <title
     id="title2">SVG Picture created as laser_breakout-F_Paste.svg date 2022/10/26 12:51:51 </title>
  <desc
     id="desc4">Picture generated by PCBNEW </desc>
  <g
     style="fill:none;fill-opacity:1;stroke:#000000;stroke-width:20000;stroke-linecap:round;stroke-linejoin:round;stroke-miterlimit:4;stroke-dasharray:none;stroke-opacity:1"
     id="g6"
     transform="translate(6489321,502100.34)" />
  <g
     id="g8"
     style="fill:none;fill-opacity:0;stroke:#000000;stroke-width:20000;stroke-linecap:round;stroke-linejoin:round;stroke-miterlimit:4;stroke-dasharray:none;stroke-opacity:1"
     transform="translate(6489321,481596.16)" />
  <g
     id="g10"
     style="fill:none;fill-opacity:0;stroke:#000000;stroke-width:20000;stroke-linecap:round;stroke-linejoin:round;stroke-miterlimit:4;stroke-dasharray:none;stroke-opacity:1"
     transform="translate(6489321,481596.16)" />
  <g
     style="fill:none;fill-opacity:0;stroke:#000000;stroke-width:20000;stroke-linecap:round;stroke-linejoin:round;stroke-miterlimit:4;stroke-dasharray:none;stroke-opacity:1"
     id="g12"
     transform="translate(6489321,481596.16)" />
  <g
     style="fill:none;fill-opacity:0;stroke:#000000;stroke-width:20000;stroke-linecap:round;stroke-linejoin:round;stroke-miterlimit:4;stroke-dasharray:none;stroke-opacity:1"
     id="g14"
     transform="translate(6489321,481596.16)" />
  <g
     id="g22"
     style="fill:none;fill-opacity:0;stroke:#000000;stroke-width:20000;stroke-linecap:round;stroke-linejoin:round;stroke-miterlimit:4;stroke-dasharray:none;stroke-opacity:1"
     transform="translate(6489321,481596.16)" />
  <g
     id="g30"
     style="fill:none;fill-opacity:0;stroke:#000000;stroke-width:20000;stroke-linecap:round;stroke-linejoin:round;stroke-miterlimit:4;stroke-dasharray:none;stroke-opacity:1"
     transform="translate(6489321,481596.16)" />
  <g
     id="g38"
     style="fill:none;fill-opacity:0;stroke:#000000;stroke-width:20000;stroke-linecap:round;stroke-linejoin:round;stroke-miterlimit:4;stroke-dasharray:none;stroke-opacity:1"
     transform="translate(6489321,481596.16)" />
  <g
     id="g68"
     style="fill:none;fill-opacity:0;stroke:#000000;stroke-width:20000;stroke-linecap:round;stroke-linejoin:round;stroke-miterlimit:4;stroke-dasharray:none;stroke-opacity:1"
     transform="translate(6489321,481596.16)" />
  <g
     id="g82"
     style="fill:none;fill-opacity:0;stroke:#000000;stroke-width:20000;stroke-linecap:round;stroke-linejoin:round;stroke-miterlimit:4;stroke-dasharray:none;stroke-opacity:1"
     transform="translate(6489321,481596.16)" />
  <g
     id="g90"
     style="fill:none;fill-opacity:0;stroke:#000000;stroke-width:20000;stroke-linecap:round;stroke-linejoin:round;stroke-miterlimit:4;stroke-dasharray:none;stroke-opacity:1"
     transform="translate(6489321,481596.16)" />
  <g
     id="g98"
     style="fill:none;fill-opacity:0;stroke:#000000;stroke-width:20000;stroke-linecap:round;stroke-linejoin:round;stroke-miterlimit:4;stroke-dasharray:none;stroke-opacity:1"
     transform="translate(6489321,481596.16)" />
  <g
     id="g100"
     style="fill:none;fill-opacity:0;stroke:#000000;stroke-width:20000;stroke-linecap:round;stroke-linejoin:round;stroke-miterlimit:4;stroke-dasharray:none;stroke-opacity:1"
     transform="translate(6489321,481596.16)" />
  <g
     id="g108"
     style="fill:none;fill-opacity:0;stroke:#000000;stroke-width:20000;stroke-linecap:round;stroke-linejoin:round;stroke-miterlimit:4;stroke-dasharray:none;stroke-opacity:1"
     transform="translate(6489321,481596.16)" />
  <g
     id="g110"
     style="fill:none;fill-opacity:0;stroke:#000000;stroke-width:20000;stroke-linecap:round;stroke-linejoin:round;stroke-miterlimit:4;stroke-dasharray:none;stroke-opacity:1"
     transform="translate(6489321,481596.16)" />
  <g
     id="g112"
     style="fill:none;fill-opacity:0;stroke:#000000;stroke-width:20000;stroke-linecap:round;stroke-linejoin:round;stroke-miterlimit:4;stroke-dasharray:none;stroke-opacity:1"
     transform="translate(6489321,481596.16)" />
  <g
     style="fill:none;fill-opacity:1;stroke:#000000;stroke-width:20000;stroke-linecap:round;stroke-linejoin:round;stroke-miterlimit:4;stroke-dasharray:none;stroke-opacity:1"
     id="g116"
     transform="translate(6489321,502100.34)" />
  <g
     style="fill:none;fill-opacity:1;stroke:#000000;stroke-width:20000;stroke-linecap:round;stroke-linejoin:round;stroke-miterlimit:4;stroke-dasharray:none;stroke-opacity:1"
     id="g118"
     transform="translate(6489321,502100.34)" />
  <metadata
     id="metadata977">
    <rdf:RDF>
      <cc:Work
         rdf:about="">
        <dc:title>SVG Picture created as laser_breakout-F_Paste.svg date 2022/10/26 12:51:51 </dc:title>
      </cc:Work>
    </rdf:RDF>
  </metadata>
  <g
     id="g1764"
     transform="translate(6102400,7624706.1)">
    <g
       style="fill:none;fill-opacity:1;stroke:#000000;stroke-width:20000;stroke-linecap:round;stroke-linejoin:round;stroke-miterlimit:4;stroke-dasharray:none;stroke-opacity:1"
       id="g20"
       transform="translate(0,-20504.181)">
      <path
         style="fill:none;fill-opacity:1;fill-rule:evenodd;stroke:#000000;stroke-width:20000;stroke-linecap:round;stroke-linejoin:round;stroke-miterlimit:4;stroke-dasharray:none;stroke-opacity:1"
         d="m 16648799,17191999 h -1699998 v -1999998 h 1699998 z"
         id="path16" />
      <path
         style="fill:none;fill-opacity:1;fill-rule:evenodd;stroke:#000000;stroke-width:20000;stroke-linecap:round;stroke-linejoin:round;stroke-miterlimit:4;stroke-dasharray:none;stroke-opacity:1"
         d="m 16648799,13191999 h -1699998 v -1999998 h 1699998 z"
         id="path18" />
    </g>
    <g
       style="fill:none;fill-opacity:1;stroke:#000000;stroke-width:20000;stroke-linecap:round;stroke-linejoin:round;stroke-miterlimit:4;stroke-dasharray:none;stroke-opacity:1"
       id="g28"
       transform="translate(0,-20504.181)">
      <path
         style="fill:none;fill-opacity:1;fill-rule:evenodd;stroke:#000000;stroke-width:20000;stroke-linecap:round;stroke-linejoin:round;stroke-miterlimit:4;stroke-dasharray:none;stroke-opacity:1"
         d="m 17555201,21677999 v -1699998 h 1999998 v 1699998 z"
         id="path24" />
      <path
         style="fill:none;fill-opacity:1;fill-rule:evenodd;stroke:#000000;stroke-width:20000;stroke-linecap:round;stroke-linejoin:round;stroke-miterlimit:4;stroke-dasharray:none;stroke-opacity:1"
         d="m 21555201,21677999 v -1699998 h 1999998 v 1699998 z"
         id="path26" />
    </g>
    <g
       style="fill:none;fill-opacity:1;stroke:#000000;stroke-width:20000;stroke-linecap:round;stroke-linejoin:round;stroke-miterlimit:4;stroke-dasharray:none;stroke-opacity:1"
       id="g36"
       transform="translate(0,-20504.181)">
      <path
         style="fill:none;fill-opacity:1;fill-rule:evenodd;stroke:#000000;stroke-width:20000;stroke-linecap:round;stroke-linejoin:round;stroke-miterlimit:4;stroke-dasharray:none;stroke-opacity:1"
         d="m 17555201,19391999 v -1699998 h 1999998 v 1699998 z"
         id="path32" />
      <path
         style="fill:none;fill-opacity:1;fill-rule:evenodd;stroke:#000000;stroke-width:20000;stroke-linecap:round;stroke-linejoin:round;stroke-miterlimit:4;stroke-dasharray:none;stroke-opacity:1"
         d="m 21555201,19391999 v -1699998 h 1999998 v 1699998 z"
         id="path34" />
    </g>
    <g
       style="fill:none;fill-opacity:1;stroke:#000000;stroke-width:20000;stroke-linecap:round;stroke-linejoin:round;stroke-miterlimit:4;stroke-dasharray:none;stroke-opacity:1"
       id="g80"
       transform="translate(0,-20504.181)">
      <path
         style="fill:none;fill-opacity:1;fill-rule:evenodd;stroke:#000000;stroke-width:20000;stroke-linecap:round;stroke-linejoin:round;stroke-miterlimit:4;stroke-dasharray:none;stroke-opacity:1"
         d="m 25718401,22981601 h 1699998 v 2499998 h -1699998 z"
         id="path70" />
      <path
         style="fill:none;fill-opacity:1;fill-rule:evenodd;stroke:#000000;stroke-width:20000;stroke-linecap:round;stroke-linejoin:round;stroke-miterlimit:4;stroke-dasharray:none;stroke-opacity:1"
         d="m 23178401,22981601 h 1699998 v 2499998 h -1699998 z"
         id="path72" />
      <path
         style="fill:none;fill-opacity:1;fill-rule:evenodd;stroke:#000000;stroke-width:20000;stroke-linecap:round;stroke-linejoin:round;stroke-miterlimit:4;stroke-dasharray:none;stroke-opacity:1"
         d="m 20638401,22981601 h 1699998 v 2499998 h -1699998 z"
         id="path74" />
      <path
         style="fill:none;fill-opacity:1;fill-rule:evenodd;stroke:#000000;stroke-width:20000;stroke-linecap:round;stroke-linejoin:round;stroke-miterlimit:4;stroke-dasharray:none;stroke-opacity:1"
         d="m 18098401,22981601 h 1699998 v 2499998 h -1699998 z"
         id="path76" />
      <path
         style="fill:none;fill-opacity:1;fill-rule:evenodd;stroke:#000000;stroke-width:20000;stroke-linecap:round;stroke-linejoin:round;stroke-miterlimit:4;stroke-dasharray:none;stroke-opacity:1"
         d="m 15558401,22981601 h 1699998 v 2499998 h -1699998 z"
         id="path78" />
    </g>
    <g
       style="fill:none;fill-opacity:1;stroke:#000000;stroke-width:20000;stroke-linecap:round;stroke-linejoin:round;stroke-miterlimit:4;stroke-dasharray:none;stroke-opacity:1"
       id="g88"
       transform="translate(0,-20504.181)">
      <path
         style="fill:none;fill-opacity:1;fill-rule:evenodd;stroke:#000000;stroke-width:20000;stroke-linecap:round;stroke-linejoin:round;stroke-miterlimit:4;stroke-dasharray:none;stroke-opacity:1"
         d="M 17910801,11009999 V 9310001 h 1999998 v 1699998 z"
         id="path84" />
      <path
         style="fill:none;fill-opacity:1;fill-rule:evenodd;stroke:#000000;stroke-width:20000;stroke-linecap:round;stroke-linejoin:round;stroke-miterlimit:4;stroke-dasharray:none;stroke-opacity:1"
         d="M 21910801,11009999 V 9310001 h 1999998 v 1699998 z"
         id="path86" />
    </g>
    <g
       style="fill:none;fill-opacity:1;stroke:#000000;stroke-width:20000;stroke-linecap:round;stroke-linejoin:round;stroke-miterlimit:4;stroke-dasharray:none;stroke-opacity:1"
       id="g96"
       transform="translate(0,-20504.181)">
      <path
         style="fill:none;fill-opacity:1;fill-rule:evenodd;stroke:#000000;stroke-width:20000;stroke-linecap:round;stroke-linejoin:round;stroke-miterlimit:4;stroke-dasharray:none;stroke-opacity:1"
         d="m 14362799,17191999 h -1699998 v -1999998 h 1699998 z"
         id="path92" />
      <path
         style="fill:none;fill-opacity:1;fill-rule:evenodd;stroke:#000000;stroke-width:20000;stroke-linecap:round;stroke-linejoin:round;stroke-miterlimit:4;stroke-dasharray:none;stroke-opacity:1"
         d="m 14362799,13191999 h -1699998 v -1999998 h 1699998 z"
         id="path94" />
    </g>
    <g
       style="fill:none;fill-opacity:1;stroke:#000000;stroke-width:20000;stroke-linecap:round;stroke-linejoin:round;stroke-miterlimit:4;stroke-dasharray:none;stroke-opacity:1"
       id="g106"
       transform="translate(0,-20504.181)">
      <path
         style="fill:none;fill-opacity:1;fill-rule:evenodd;stroke:#000000;stroke-width:20000;stroke-linecap:round;stroke-linejoin:round;stroke-miterlimit:4;stroke-dasharray:none;stroke-opacity:1"
         d="m 12076799,17191999 h -1699998 v -1999998 h 1699998 z"
         id="path102" />
      <path
         style="fill:none;fill-opacity:1;fill-rule:evenodd;stroke:#000000;stroke-width:20000;stroke-linecap:round;stroke-linejoin:round;stroke-miterlimit:4;stroke-dasharray:none;stroke-opacity:1"
         d="m 12076799,13191999 h -1699998 v -1999998 h 1699998 z"
         id="path104" />
    </g>
    <g
       id="g2801"
       transform="translate(-4091739.5,1314200.3)">
      <path
         id="path1492"
         style="fill:none;fill-opacity:1;fill-rule:evenodd;stroke:#000000;stroke-width:20000;stroke-linecap:round;stroke-linejoin:round;stroke-miterlimit:4;stroke-dasharray:none;stroke-opacity:1"
         d="m 23257767,11883471 -39751,8112 -33339,22201 -22654,33729 -7694,39280 v 103321 h -14534 l -19660,3843 -16670,11101 -11539,17077 -3847,19639 v 103321 l 3847,19639 11539,16651 16670,11527 19660,3843 h 117970 93179 113696 l 39323,-8113 33766,-22201 22227,-33729 8121,-39279 v -206644 l -8121,-39280 -22227,-33728 -33766,-22202 -39323,-8112 z" />
      <path
         style="fill:none;fill-opacity:1;fill-rule:evenodd;stroke:#000000;stroke-width:20000;stroke-linecap:round;stroke-linejoin:round;stroke-miterlimit:4;stroke-dasharray:none;stroke-opacity:1"
         d="m 23963000,11987624 7802,-39225 22220,-33253 33253,-22220 39225,-7802 h 205000 l 39226,7802 33252,22220 22221,33253 7801,39225 v 205000 l -7801,39226 -22221,33252 -33252,22221 -39226,7801 h -205000 l -39225,-7801 -33253,-22221 -22220,-33252 -7802,-39226 z"
         id="path1574" />
      <path
         style="fill:none;fill-opacity:1;fill-rule:evenodd;stroke:#000000;stroke-width:20000;stroke-linecap:round;stroke-linejoin:round;stroke-miterlimit:4;stroke-dasharray:none;stroke-opacity:1"
         d="m 24763000,11987624 7802,-39225 22220,-33253 33253,-22220 39225,-7802 h 205000 l 39225,7802 33253,22220 22220,33253 7802,39225 v 205000 l -7802,39225 -22220,33253 -33253,22220 -39225,7802 h -205000 l -39225,-7802 -33253,-22220 -22220,-33253 -7802,-39225 z"
         id="path1656" />
      <path
         style="fill:none;fill-opacity:1;fill-rule:evenodd;stroke:#000000;stroke-width:20000;stroke-linecap:round;stroke-linejoin:round;stroke-miterlimit:4;stroke-dasharray:none;stroke-opacity:1"
         d="m 25563000,11987624 7802,-39225 22220,-33253 33253,-22220 39225,-7802 h 205000 l 39225,7802 33253,22220 22220,33253 7802,39225 v 205000 l -7802,39225 -22220,33253 -33253,22220 -39225,7802 h -205000 l -39225,-7802 -33253,-22220 -22220,-33253 -7802,-39225 z"
         id="path1738" />
      <path
         style="fill:none;fill-opacity:1;fill-rule:evenodd;stroke:#000000;stroke-width:20000;stroke-linecap:round;stroke-linejoin:round;stroke-miterlimit:4;stroke-dasharray:none;stroke-opacity:1"
         d="m 26363000,11987624 7802,-39225 22220,-33253 33253,-22220 39225,-7802 h 205000 l 39225,7802 33253,22220 22220,33253 7802,39225 v 205000 l -7802,39225 -22220,33253 -33253,22220 -39225,7802 h -205000 l -39225,-7802 -33253,-22220 -22220,-33253 -7802,-39225 z"
         id="path1820" />
      <path
         style="fill:none;fill-opacity:1;fill-rule:evenodd;stroke:#000000;stroke-width:20000;stroke-linecap:round;stroke-linejoin:round;stroke-miterlimit:4;stroke-dasharray:none;stroke-opacity:1"
         d="m 26363000,12787624 7802,-39225 22220,-33253 33253,-22220 39225,-7802 h 205000 l 39225,7802 33253,22220 22220,33253 7802,39225 v 205000 l -7802,39225 -22220,33253 -33253,22220 -39225,7802 h -205000 l -39225,-7802 -33253,-22220 -22220,-33253 -7802,-39225 z"
         id="path1902" />
      <path
         style="fill:none;fill-opacity:1;fill-rule:evenodd;stroke:#000000;stroke-width:20000;stroke-linecap:round;stroke-linejoin:round;stroke-miterlimit:4;stroke-dasharray:none;stroke-opacity:1"
         d="m 26363000,13587624 7802,-39225 22220,-33253 33253,-22220 39225,-7802 h 205000 l 39225,7802 33253,22220 22220,33253 7802,39225 v 205000 l -7802,39225 -22220,33253 -33253,22220 -39225,7802 h -205000 l -39225,-7802 -33253,-22220 -22220,-33253 -7802,-39225 z"
         id="path1984" />
      <path
         style="fill:none;fill-opacity:1;fill-rule:evenodd;stroke:#000000;stroke-width:20000;stroke-linecap:round;stroke-linejoin:round;stroke-miterlimit:4;stroke-dasharray:none;stroke-opacity:1"
         d="m 25563000,13587624 7802,-39225 22220,-33253 33253,-22220 39225,-7802 h 205000 l 39225,7802 33253,22220 22220,33253 7802,39225 v 205000 l -7802,39225 -22220,33253 -33253,22220 -39225,7802 h -205000 l -39225,-7802 -33253,-22220 -22220,-33253 -7802,-39225 z"
         id="path2066" />
      <path
         style="fill:none;fill-opacity:1;fill-rule:evenodd;stroke:#000000;stroke-width:20000;stroke-linecap:round;stroke-linejoin:round;stroke-miterlimit:4;stroke-dasharray:none;stroke-opacity:1"
         d="m 24763000,13587624 7802,-39225 22220,-33253 33253,-22220 39225,-7802 h 205000 l 39225,7802 33253,22220 22220,33253 7802,39225 v 205000 l -7802,39225 -22220,33253 -33253,22220 -39225,7802 h -205000 l -39225,-7802 -33253,-22220 -22220,-33253 -7802,-39225 z"
         id="path2148" />
      <path
         style="fill:none;fill-opacity:1;fill-rule:evenodd;stroke:#000000;stroke-width:20000;stroke-linecap:round;stroke-linejoin:round;stroke-miterlimit:4;stroke-dasharray:none;stroke-opacity:1"
         d="m 23963000,13587624 7802,-39225 22220,-33253 33253,-22220 39225,-7802 h 205000 l 39225,7802 33253,22220 22220,33253 7802,39225 v 205000 l -7802,39225 -22220,33253 -33253,22220 -39225,7802 h -205000 l -39225,-7802 -33253,-22220 -22220,-33253 -7802,-39225 z"
         id="path2230" />
      <path
         style="fill:none;fill-opacity:1;fill-rule:evenodd;stroke:#000000;stroke-width:20000;stroke-linecap:round;stroke-linejoin:round;stroke-miterlimit:4;stroke-dasharray:none;stroke-opacity:1"
         d="m 23163000,13587624 7802,-39225 22220,-33253 33253,-22220 39225,-7802 h 205000 l 39225,7802 33253,22220 22220,33253 7802,39225 v 205000 l -7802,39225 -22220,33253 -33253,22220 -39225,7802 h -205000 l -39225,-7802 -33253,-22220 -22220,-33253 -7802,-39225 z"
         id="path2312" />
      <path
         style="fill:none;fill-opacity:1;fill-rule:evenodd;stroke:#000000;stroke-width:20000;stroke-linecap:round;stroke-linejoin:round;stroke-miterlimit:4;stroke-dasharray:none;stroke-opacity:1"
         d="m 23163000,12787624 7802,-39225 22220,-33253 33253,-22220 39225,-7802 h 205000 l 39225,7802 33253,22220 22220,33253 7802,39225 v 205000 l -7802,39225 -22220,33253 -33253,22220 -39225,7802 h -205000 l -39225,-7802 -33253,-22220 -22220,-33253 -7802,-39225 z"
         id="path2394" />
    </g>
  </g>
  <rect
     style="fill:none;stroke:#000000;stroke-width:20000;stroke-miterlimit:4;stroke-dasharray:none"
     id="rect1543"
     width="49980000"
     height="49980004"
     x="10000"
     y="10000" />
</svg>
