<?xml version="1.0" encoding="UTF-8" standalone="no"?>
<svg
   version="1.1"
   width="4.9930434cm"
   height="5.001636cm"
   viewBox="0 0 49930433 50016362"
   id="svg156"
   sodipodi:docname="laser4.svg"
   inkscape:version="1.1.1 (3bf5ae0d25, 2021-09-20)"
   xmlns:inkscape="http://www.inkscape.org/namespaces/inkscape"
   xmlns:sodipodi="http://sodipodi.sourceforge.net/DTD/sodipodi-0.dtd"
   xmlns="http://www.w3.org/2000/svg"
   xmlns:svg="http://www.w3.org/2000/svg"
   xmlns:rdf="http://www.w3.org/1999/02/22-rdf-syntax-ns#"
   xmlns:cc="http://creativecommons.org/ns#"
   xmlns:dc="http://purl.org/dc/elements/1.1/">
  <defs
     id="defs160" />
  <sodipodi:namedview
     id="namedview158"
     pagecolor="#ffffff"
     bordercolor="#666666"
     borderopacity="1.0"
     inkscape:pageshadow="2"
     inkscape:pageopacity="0.0"
     inkscape:pagecheckerboard="0"
     inkscape:document-units="cm"
     showgrid="false"
     inkscape:zoom="11.715401"
     inkscape:cx="82.242172"
     inkscape:cy="92.058311"
     inkscape:window-width="1920"
     inkscape:window-height="1001"
     inkscape:window-x="-9"
     inkscape:window-y="-9"
     inkscape:window-maximized="1"
     inkscape:current-layer="svg156" />
  <title
     id="title2">SVG Picture created as laser_breakout-F_Paste.svg date 2022/10/27 11:27:05 </title>
  <desc
     id="desc4">Picture generated by PCBNEW </desc>
  <g
     style="fill:none;fill-opacity:1;stroke:#000000;stroke-width:20000;stroke-linecap:round;stroke-linejoin:round;stroke-miterlimit:4;stroke-dasharray:none;stroke-opacity:1"
     id="g6"
     transform="translate(6550217.2,1462380.8)" />
  <g
     id="g8"
     style="fill:none;fill-opacity:0;stroke:#000000;stroke-width:20000;stroke-linecap:round;stroke-linejoin:round;stroke-miterlimit:4;stroke-dasharray:none;stroke-opacity:1"
     transform="translate(6067618.2,7612380.7)" />
  <g
     id="g10"
     style="fill:none;fill-opacity:0;stroke:#000000;stroke-width:20000;stroke-linecap:round;stroke-linejoin:round;stroke-miterlimit:4;stroke-dasharray:none;stroke-opacity:1"
     transform="translate(6067618.2,7612380.7)" />
  <g
     style="fill:none;fill-opacity:0;stroke:#000000;stroke-width:20000;stroke-linecap:round;stroke-linejoin:round;stroke-miterlimit:4;stroke-dasharray:none;stroke-opacity:1"
     id="g12"
     transform="translate(6067618.2,7612380.7)" />
  <g
     style="fill:none;fill-opacity:0;stroke:#000000;stroke-width:20000;stroke-linecap:round;stroke-linejoin:round;stroke-miterlimit:4;stroke-dasharray:none;stroke-opacity:1"
     id="g14"
     transform="translate(6067618.2,7612380.7)" />
  <g
     id="g22"
     style="fill:none;fill-opacity:0;stroke:#000000;stroke-width:20000;stroke-linecap:round;stroke-linejoin:round;stroke-miterlimit:4;stroke-dasharray:none;stroke-opacity:1"
     transform="translate(6067618.2,7612380.7)" />
  <g
     id="g30"
     style="fill:none;fill-opacity:0;stroke:#000000;stroke-width:20000;stroke-linecap:round;stroke-linejoin:round;stroke-miterlimit:4;stroke-dasharray:none;stroke-opacity:1"
     transform="translate(6067618.2,7612380.7)" />
  <g
     id="g38"
     style="fill:none;fill-opacity:0;stroke:#000000;stroke-width:20000;stroke-linecap:round;stroke-linejoin:round;stroke-miterlimit:4;stroke-dasharray:none;stroke-opacity:1"
     transform="translate(6067618.2,7612380.7)" />
  <g
     id="g68"
     style="fill:none;fill-opacity:0;stroke:#000000;stroke-width:20000;stroke-linecap:round;stroke-linejoin:round;stroke-miterlimit:4;stroke-dasharray:none;stroke-opacity:1"
     transform="translate(6067618.2,7612380.7)" />
  <g
     id="g82"
     style="fill:none;fill-opacity:0;stroke:#000000;stroke-width:20000;stroke-linecap:round;stroke-linejoin:round;stroke-miterlimit:4;stroke-dasharray:none;stroke-opacity:1"
     transform="translate(6067618.2,7612380.7)" />
  <g
     id="g90"
     style="fill:none;fill-opacity:0;stroke:#000000;stroke-width:20000;stroke-linecap:round;stroke-linejoin:round;stroke-miterlimit:4;stroke-dasharray:none;stroke-opacity:1"
     transform="translate(6067618.2,7612380.7)" />
  <g
     id="g98"
     style="fill:none;fill-opacity:0;stroke:#000000;stroke-width:20000;stroke-linecap:round;stroke-linejoin:round;stroke-miterlimit:4;stroke-dasharray:none;stroke-opacity:1"
     transform="translate(6067618.2,7612380.7)" />
  <g
     id="g100"
     style="fill:none;fill-opacity:0;stroke:#000000;stroke-width:20000;stroke-linecap:round;stroke-linejoin:round;stroke-miterlimit:4;stroke-dasharray:none;stroke-opacity:1"
     transform="translate(6067618.2,7612380.7)" />
  <g
     id="g108"
     style="fill:none;fill-opacity:0;stroke:#000000;stroke-width:20000;stroke-linecap:round;stroke-linejoin:round;stroke-miterlimit:4;stroke-dasharray:none;stroke-opacity:1"
     transform="translate(6067618.2,7612380.7)" />
  <g
     id="g110"
     style="fill:none;fill-opacity:0;stroke:#000000;stroke-width:20000;stroke-linecap:round;stroke-linejoin:round;stroke-miterlimit:4;stroke-dasharray:none;stroke-opacity:1"
     transform="translate(6067618.2,7612380.7)" />
  <g
     id="g112"
     style="fill:none;fill-opacity:0;stroke:#000000;stroke-width:20000;stroke-linecap:round;stroke-linejoin:round;stroke-miterlimit:4;stroke-dasharray:none;stroke-opacity:1"
     transform="translate(6067618.2,7612380.7)" />
  <g
     style="fill:none;fill-opacity:1;stroke:#000000;stroke-width:20000;stroke-linecap:round;stroke-linejoin:round;stroke-miterlimit:4;stroke-dasharray:none;stroke-opacity:1"
     id="g116"
     transform="translate(6550217.2,1462380.8)" />
  <g
     style="fill:none;fill-opacity:1;stroke:#000000;stroke-width:20000;stroke-linecap:round;stroke-linejoin:round;stroke-miterlimit:4;stroke-dasharray:none;stroke-opacity:1"
     id="g118"
     transform="translate(6550217.2,1462380.8)" />
  <g
     style="fill:none;fill-opacity:0;stroke:#000000;stroke-width:9754.21;stroke-linecap:round;stroke-linejoin:round;stroke-miterlimit:4;stroke-dasharray:none;stroke-opacity:1"
     id="g154"
     transform="matrix(1.9650106,0,0,2.1394853,-16560958,-15749014)">
    <path
       d="M 33832800,7366000 V 30734000"
       id="path120"
       style="fill:none;stroke-width:9754.21;stroke-miterlimit:4;stroke-dasharray:none" />
    <path
       d="M 8432800,7366000 H 33832800"
       id="path122"
       style="fill:none;stroke-width:9754.21;stroke-miterlimit:4;stroke-dasharray:none" />
    <path
       d="M 8432800,30734000 V 7366000"
       id="path124"
       style="fill:none;stroke-width:9754.21;stroke-miterlimit:4;stroke-dasharray:none" />
    <path
       d="M 33832800,30734000 H 8432800"
       id="path126"
       style="fill:none;stroke-width:9754.21;stroke-miterlimit:4;stroke-dasharray:none" />
    <g
       id="g128"
       style="fill:none;stroke-width:9754.21;stroke-miterlimit:4;stroke-dasharray:none" />
    <g
       id="g130"
       style="fill:none;stroke-width:9754.21;stroke-miterlimit:4;stroke-dasharray:none" />
    <g
       id="g132"
       style="fill:none;stroke-width:9754.21;stroke-miterlimit:4;stroke-dasharray:none" />
    <g
       id="g134"
       style="fill:none;stroke-width:9754.21;stroke-miterlimit:4;stroke-dasharray:none" />
    <g
       id="g136"
       style="fill:none;stroke-width:9754.21;stroke-miterlimit:4;stroke-dasharray:none" />
    <g
       id="g138"
       style="fill:none;stroke-width:9754.21;stroke-miterlimit:4;stroke-dasharray:none" />
    <g
       id="g140"
       style="fill:none;stroke-width:9754.21;stroke-miterlimit:4;stroke-dasharray:none" />
    <g
       id="g142"
       style="fill:none;stroke-width:9754.21;stroke-miterlimit:4;stroke-dasharray:none" />
    <g
       id="g144"
       style="fill:none;stroke-width:9754.21;stroke-miterlimit:4;stroke-dasharray:none" />
    <g
       id="g146"
       style="fill:none;stroke-width:9754.21;stroke-miterlimit:4;stroke-dasharray:none" />
    <g
       id="g148"
       style="fill:none;stroke-width:9754.21;stroke-miterlimit:4;stroke-dasharray:none" />
    <g
       id="g150"
       style="fill:none;stroke-width:9754.21;stroke-miterlimit:4;stroke-dasharray:none" />
    <g
       id="g152"
       style="fill:none;stroke-width:9754.21;stroke-miterlimit:4;stroke-dasharray:none" />
  </g>
  <metadata
     id="metadata977">
    <rdf:RDF>
      <cc:Work
         rdf:about="">
        <dc:title>SVG Picture created as laser_breakout-F_Paste.svg date 2022/10/27 11:27:05 </dc:title>
      </cc:Work>
    </rdf:RDF>
  </metadata>
  <g
     id="g1505">
    <path
       style="fill:none;fill-opacity:1;fill-rule:evenodd;stroke:#000000;stroke-width:20000;stroke-linecap:round;stroke-linejoin:round;stroke-miterlimit:4;stroke-dasharray:none;stroke-opacity:1"
       d="m 25174418,20950381 6546,-32910 18643,-27901 27901,-18643 32910,-6546 h 172000 l 32910,6546 27901,18643 18643,27901 6546,32910 v 172000 l -6546,32911 -18643,27900 -27901,18643 -32910,6546 h -172000 l -32910,-6546 -27901,-18643 -18643,-27900 -6546,-32911 z"
       id="path1469" />
    <path
       style="fill:none;fill-opacity:1;fill-rule:evenodd;stroke:#000000;stroke-width:20000;stroke-linecap:round;stroke-linejoin:round;stroke-miterlimit:4;stroke-dasharray:none;stroke-opacity:1"
       d="m 25974418,20950381 6546,-32910 18643,-27901 27901,-18643 32910,-6546 h 172000 l 32910,6546 27901,18643 18643,27901 6546,32910 v 172000 l -6546,32911 -18643,27900 -27901,18643 -32910,6546 h -172000 l -32910,-6546 -27901,-18643 -18643,-27900 -6546,-32911 z"
       id="path1471" />
    <path
       style="fill:none;fill-opacity:1;fill-rule:evenodd;stroke:#000000;stroke-width:20000;stroke-linecap:round;stroke-linejoin:round;stroke-miterlimit:4;stroke-dasharray:none;stroke-opacity:1"
       d="m 26774418,20950381 6546,-32910 18643,-27901 27901,-18643 32910,-6546 h 172000 l 32910,6546 27901,18643 18643,27901 6546,32910 v 172000 l -6546,32911 -18643,27900 -27901,18643 -32910,6546 h -172000 l -32910,-6546 -27901,-18643 -18643,-27900 -6546,-32911 z"
       id="path1473" />
    <path
       style="fill:none;fill-opacity:1;fill-rule:evenodd;stroke:#000000;stroke-width:20000;stroke-linecap:round;stroke-linejoin:round;stroke-miterlimit:4;stroke-dasharray:none;stroke-opacity:1"
       d="m 27574418,20950381 6546,-32910 18643,-27901 27901,-18643 32910,-6546 h 172000 l 32910,6546 27901,18643 18643,27901 6546,32910 v 172000 l -6546,32911 -18643,27900 -27901,18643 -32910,6546 h -172000 l -32910,-6546 -27901,-18643 -18643,-27900 -6546,-32911 z"
       id="path1475" />
    <path
       style="fill:none;fill-opacity:1;fill-rule:evenodd;stroke:#000000;stroke-width:20000;stroke-linecap:round;stroke-linejoin:round;stroke-miterlimit:4;stroke-dasharray:none;stroke-opacity:1"
       d="m 28374418,20950381 6546,-32910 18643,-27901 27901,-18643 32910,-6546 h 172000 l 32910,6546 27901,18643 18643,27901 6546,32910 v 172000 l -6546,32911 -18643,27900 -27901,18643 -32910,6546 h -172000 l -32910,-6546 -27901,-18643 -18643,-27900 -6546,-32911 z"
       id="path1477" />
    <path
       style="fill:none;fill-opacity:1;fill-rule:evenodd;stroke:#000000;stroke-width:20000;stroke-linecap:round;stroke-linejoin:round;stroke-miterlimit:4;stroke-dasharray:none;stroke-opacity:1"
       d="m 28374418,21750381 6546,-32910 18643,-27901 27901,-18643 32910,-6546 h 172000 l 32910,6546 27901,18643 18643,27901 6546,32910 v 172000 l -6546,32911 -18643,27900 -27901,18643 -32910,6546 h -172000 l -32910,-6546 -27901,-18643 -18643,-27900 -6546,-32911 z"
       id="path1479" />
    <path
       style="fill:none;fill-opacity:1;fill-rule:evenodd;stroke:#000000;stroke-width:20000;stroke-linecap:round;stroke-linejoin:round;stroke-miterlimit:4;stroke-dasharray:none;stroke-opacity:1"
       d="m 28374418,22550381 6546,-32910 18643,-27901 27901,-18643 32910,-6546 h 172000 l 32910,6546 27901,18643 18643,27901 6546,32910 v 172000 l -6546,32911 -18643,27900 -27901,18643 -32910,6546 h -172000 l -32910,-6546 -27901,-18643 -18643,-27900 -6546,-32911 z"
       id="path1481" />
    <path
       style="fill:none;fill-opacity:1;fill-rule:evenodd;stroke:#000000;stroke-width:20000;stroke-linecap:round;stroke-linejoin:round;stroke-miterlimit:4;stroke-dasharray:none;stroke-opacity:1"
       d="m 27574418,22550381 6546,-32910 18643,-27901 27901,-18643 32910,-6546 h 172000 l 32910,6546 27901,18643 18643,27901 6546,32910 v 172000 l -6546,32911 -18643,27900 -27901,18643 -32910,6546 h -172000 l -32910,-6546 -27901,-18643 -18643,-27900 -6546,-32911 z"
       id="path1483" />
    <path
       style="fill:none;fill-opacity:1;fill-rule:evenodd;stroke:#000000;stroke-width:20000;stroke-linecap:round;stroke-linejoin:round;stroke-miterlimit:4;stroke-dasharray:none;stroke-opacity:1"
       d="m 26774418,22550381 6546,-32910 18643,-27901 27901,-18643 32910,-6546 h 172000 l 32910,6546 27901,18643 18643,27901 6546,32910 v 172000 l -6546,32911 -18643,27900 -27901,18643 -32910,6546 h -172000 l -32910,-6546 -27901,-18643 -18643,-27900 -6546,-32911 z"
       id="path1485" />
    <path
       style="fill:none;fill-opacity:1;fill-rule:evenodd;stroke:#000000;stroke-width:20000;stroke-linecap:round;stroke-linejoin:round;stroke-miterlimit:4;stroke-dasharray:none;stroke-opacity:1"
       d="m 25974418,22550381 6546,-32910 18643,-27901 27901,-18643 32910,-6546 h 172000 l 32910,6546 27901,18643 18643,27901 6546,32910 v 172000 l -6546,32911 -18643,27900 -27901,18643 -32910,6546 h -172000 l -32910,-6546 -27901,-18643 -18643,-27900 -6546,-32911 z"
       id="path1487" />
    <path
       style="fill:none;fill-opacity:1;fill-rule:evenodd;stroke:#000000;stroke-width:20000;stroke-linecap:round;stroke-linejoin:round;stroke-miterlimit:4;stroke-dasharray:none;stroke-opacity:1"
       d="m 25174418,22550381 6546,-32910 18643,-27901 27901,-18643 32910,-6546 h 172000 l 32910,6546 27901,18643 18643,27901 6546,32910 v 172000 l -6546,32911 -18643,27900 -27901,18643 -32910,6546 h -172000 l -32910,-6546 -27901,-18643 -18643,-27900 -6546,-32911 z"
       id="path1489" />
    <path
       style="fill:none;fill-opacity:1;fill-rule:evenodd;stroke:#000000;stroke-width:20000;stroke-linecap:round;stroke-linejoin:round;stroke-miterlimit:4;stroke-dasharray:none;stroke-opacity:1"
       d="m 25174418,21750381 6546,-32910 18643,-27901 27901,-18643 32910,-6546 h 172000 l 32910,6546 27901,18643 18643,27901 6546,32910 v 172000 l -6546,32911 -18643,27900 -27901,18643 -32910,6546 h -172000 l -32910,-6546 -27901,-18643 -18643,-27900 -6546,-32911 z"
       id="path1491" />
  </g>
  <g
     id="g1623">
    <path
       style="fill:none;fill-opacity:1;fill-rule:evenodd;stroke:#000000;stroke-width:20000;stroke-linecap:round;stroke-linejoin:round;stroke-miterlimit:4;stroke-dasharray:none;stroke-opacity:1"
       d="m 22544417,24602380 h -1355998 v -1595998 h 1355998 z"
       id="path1587" />
    <path
       style="fill:none;fill-opacity:1;fill-rule:evenodd;stroke:#000000;stroke-width:20000;stroke-linecap:round;stroke-linejoin:round;stroke-miterlimit:4;stroke-dasharray:none;stroke-opacity:1"
       d="m 22544417,20602380 h -1355998 v -1595998 h 1355998 z"
       id="path1589" />
    <path
       style="fill:none;fill-opacity:1;fill-rule:evenodd;stroke:#000000;stroke-width:20000;stroke-linecap:round;stroke-linejoin:round;stroke-miterlimit:4;stroke-dasharray:none;stroke-opacity:1"
       d="m 23824819,29118380 v -1355998 h 1595998 v 1355998 z"
       id="path1591" />
    <path
       style="fill:none;fill-opacity:1;fill-rule:evenodd;stroke:#000000;stroke-width:20000;stroke-linecap:round;stroke-linejoin:round;stroke-miterlimit:4;stroke-dasharray:none;stroke-opacity:1"
       d="m 27824819,29118380 v -1355998 h 1595998 v 1355998 z"
       id="path1593" />
    <path
       style="fill:none;fill-opacity:1;fill-rule:evenodd;stroke:#000000;stroke-width:20000;stroke-linecap:round;stroke-linejoin:round;stroke-miterlimit:4;stroke-dasharray:none;stroke-opacity:1"
       d="m 23824819,26832380 v -1355998 h 1595998 v 1355998 z"
       id="path1595" />
    <path
       style="fill:none;fill-opacity:1;fill-rule:evenodd;stroke:#000000;stroke-width:20000;stroke-linecap:round;stroke-linejoin:round;stroke-miterlimit:4;stroke-dasharray:none;stroke-opacity:1"
       d="m 27824819,26832380 v -1355998 h 1595998 v 1355998 z"
       id="path1597" />
    <path
       style="fill:none;fill-opacity:1;fill-rule:evenodd;stroke:#000000;stroke-width:20000;stroke-linecap:round;stroke-linejoin:round;stroke-miterlimit:4;stroke-dasharray:none;stroke-opacity:1"
       d="m 24180419,18450380 v -1355998 h 1595998 v 1355998 z"
       id="path1599" />
    <path
       style="fill:none;fill-opacity:1;fill-rule:evenodd;stroke:#000000;stroke-width:20000;stroke-linecap:round;stroke-linejoin:round;stroke-miterlimit:4;stroke-dasharray:none;stroke-opacity:1"
       d="m 28180419,18450380 v -1355998 h 1595998 v 1355998 z"
       id="path1601" />
    <path
       style="fill:none;fill-opacity:1;fill-rule:evenodd;stroke:#000000;stroke-width:20000;stroke-linecap:round;stroke-linejoin:round;stroke-miterlimit:4;stroke-dasharray:none;stroke-opacity:1"
       d="m 20258417,24602380 h -1355998 v -1595998 h 1355998 z"
       id="path1603" />
    <path
       style="fill:none;fill-opacity:1;fill-rule:evenodd;stroke:#000000;stroke-width:20000;stroke-linecap:round;stroke-linejoin:round;stroke-miterlimit:4;stroke-dasharray:none;stroke-opacity:1"
       d="m 20258417,20602380 h -1355998 v -1595998 h 1355998 z"
       id="path1605" />
    <path
       style="fill:none;fill-opacity:1;fill-rule:evenodd;stroke:#000000;stroke-width:20000;stroke-linecap:round;stroke-linejoin:round;stroke-miterlimit:4;stroke-dasharray:none;stroke-opacity:1"
       d="m 17972417,24602380 h -1355998 v -1595998 h 1355998 z"
       id="path1607" />
    <path
       style="fill:none;fill-opacity:1;fill-rule:evenodd;stroke:#000000;stroke-width:20000;stroke-linecap:round;stroke-linejoin:round;stroke-miterlimit:4;stroke-dasharray:none;stroke-opacity:1"
       d="m 17972417,20602380 h -1355998 v -1595998 h 1355998 z"
       id="path1609" />
  </g>
</svg>
